<svg width="30" height="31" viewBox="0 0 30 31" fill="none" xmlns="http://www.w3.org/2000/svg">
<g clip-path="url(#clip0)">
<path d="M28.3503 2.31331C27.2515 1.21421 25.9276 0.664551 24.3797 0.664551H5.6463C4.09835 0.664551 2.77444 1.21421 1.67513 2.31331C0.576024 3.41263 0.0263672 4.73646 0.0263672 6.28448V25.0176C0.0263672 26.5655 0.576024 27.8895 1.67513 28.9888C2.77444 30.0881 4.09835 30.6377 5.6463 30.6377H24.3795C25.9274 30.6377 27.2513 30.0881 28.3501 28.9888C29.4495 27.8895 29.9991 26.5656 29.9991 25.0176V6.28448C29.999 4.73646 29.4494 3.41242 28.3503 2.31331ZM9.15871 25.7591H4.65101V12.2165H9.15871V25.7591ZM8.74917 9.7092C8.28092 10.158 7.66291 10.3825 6.8953 10.3825H6.87561C6.13417 10.3825 5.5327 10.158 5.07074 9.7092C4.60871 9.26036 4.37783 8.70428 4.37783 8.04082C4.37783 7.36438 4.6154 6.80488 5.09008 6.36246C5.5651 5.92018 6.17969 5.69894 6.93412 5.69894C7.68861 5.69894 8.29356 5.92018 8.74897 6.36246C9.20424 6.80488 9.43846 7.36438 9.45138 8.04082C9.45131 8.704 9.21743 9.26008 8.74917 9.7092ZM25.3747 25.7591H20.867V18.5196C20.867 16.4774 20.1127 15.456 18.6035 15.456C18.0312 15.456 17.5496 15.6154 17.1595 15.9341C16.7689 16.2527 16.4763 16.6398 16.2814 17.0954C16.1902 17.3293 16.1448 17.6935 16.1448 18.1877V25.759H11.6371C11.6761 17.5894 11.6761 13.075 11.6371 12.2163H16.1448V14.1283C17.0926 12.6465 18.4384 11.904 20.1842 11.904C21.7453 11.904 23.0009 12.418 23.9505 13.4455C24.9002 14.4733 25.3749 15.989 25.3749 17.992V25.7591H25.3747Z" fill="white" fill-opacity="0.5"/>
</g>
<defs>
<clipPath id="clip0">
<rect width="29.9732" height="29.9732" fill="white" transform="matrix(1 0 0 -1 0.0263672 30.6377)"/>
</clipPath>
</defs>
</svg>
