<?xml version="1.0" encoding="utf-8"?>
<!-- Generator: Adobe Illustrator 21.0.2, SVG Export Plug-In . SVG Version: 6.00 Build 0)  -->
<svg version="1.1" id="Layer_1" xmlns="http://www.w3.org/2000/svg" xmlns:xlink="http://www.w3.org/1999/xlink" x="0px" y="0px"
	 viewBox="0 0 29 28" style="enable-background:new 0 0 29 28;" xml:space="preserve">
<style type="text/css">
	.st0{fill:#FEB800;}
</style>
<path class="st0" d="M7.8,15.7C7.8,15.7,7.8,15.8,7.8,15.7C7.8,15.8,7.8,15.8,7.8,15.7C7.8,15.8,7.8,15.8,7.8,15.7z"/>
<path class="st0" d="M8.1,15.6C8.2,15.6,8.2,15.6,8.1,15.6C8.2,15.6,8.2,15.6,8.1,15.6z"/>
<path class="st0" d="M8.1,15.6C8.1,15.6,8.1,15.6,8.1,15.6C8.1,15.6,8.1,15.6,8.1,15.6z"/>
<path class="st0" d="M7.2,15.8C7.2,15.8,7.2,15.8,7.2,15.8C7.2,15.8,7.2,15.8,7.2,15.8L7.2,15.8z"/>
<path class="st0" d="M7.1,15.6c0,0-0.1,0.1-0.1,0.1l0.1,0C7.1,15.7,7.1,15.7,7.1,15.6z"/>
<path class="st0" d="M7.4,15.8C7.4,15.8,7.4,15.8,7.4,15.8C7.4,15.8,7.4,15.8,7.4,15.8z"/>
<path class="st0" d="M21.5,11.9C21.6,11.9,21.6,11.9,21.5,11.9C21.5,11.9,21.5,11.9,21.5,11.9C21.5,11.9,21.5,11.9,21.5,11.9z"/>
<path class="st0" d="M21.1,12.1C21.1,12.1,21.1,12.1,21.1,12.1C21.1,12.1,21.1,12.1,21.1,12.1z"/>
<path class="st0" d="M21.2,12.1C21.1,12.1,21.1,12.1,21.2,12.1C21.1,12.1,21.1,12.1,21.2,12.1z"/>
<path class="st0" d="M22.4,11.9C22.4,11.9,22.4,11.9,22.4,11.9C22.4,11.9,22.4,11.9,22.4,11.9L22.4,11.9z"/>
<path class="st0" d="M22.4,12c0,0,0.1-0.1,0.1-0.1l-0.2,0C22.5,11.9,22.5,12,22.4,12z"/>
<path class="st0" d="M22.1,11.8C22.1,11.8,22.1,11.8,22.1,11.8C22.1,11.8,22.1,11.8,22.1,11.8z"/>
<path class="st0" d="M3.6,15C3.6,15,3.6,15,3.6,15C3.6,15,3.6,15,3.6,15z"/>
<path class="st0" d="M2,15.2C2,15.2,2,15.3,2,15.2C2,15.3,2,15.2,2,15.2L2,15.2z"/>
<path class="st0" d="M1.9,15.1c0,0-0.1,0.1-0.1,0.1l0.2,0C1.9,15.2,1.9,15.2,1.9,15.1z"/>
<path class="st0" d="M25.1,12.1C25.1,12.1,25.1,12.1,25.1,12.1C25.1,12.1,25.1,12.1,25.1,12.1C25.1,12.1,25.1,12.1,25.1,12.1z"/>
<path class="st0" d="M24.5,12.2C24.4,12.2,24.4,12.2,24.5,12.2C24.4,12.2,24.4,12.2,24.5,12.2z"/>
<path class="st0" d="M24.5,12.3C24.5,12.3,24.5,12.3,24.5,12.3C24.5,12.3,24.5,12.3,24.5,12.3z"/>
<path class="st0" d="M26.3,12.1C26.3,12.1,26.3,12.1,26.3,12.1C26.3,12.1,26.3,12.1,26.3,12.1L26.3,12.1z"/>
<path class="st0" d="M1.2,14.7C1.3,14.7,1.3,14.7,1.2,14.7C1.3,14.7,1.2,14.7,1.2,14.7z"/>
<path class="st0" d="M1.8,14.3C1.8,14.3,1.8,14.3,1.8,14.3C1.8,14.3,1.8,14.3,1.8,14.3z"/>
<path class="st0" d="M11.6,12.6L11.6,12.6C11.6,12.6,11.6,12.6,11.6,12.6z"/>
<path class="st0" d="M26.4,12.2c0,0,0.2,0,0.2-0.1l-0.2,0C26.4,12.1,26.5,12.2,26.4,12.2z"/>
<path class="st0" d="M25.9,12C25.9,12,25.9,12,25.9,12C25.9,12,25.9,12,25.9,12z"/>
<path class="st0" d="M25.2,12.5L25.2,12.5C25.2,12.5,25.2,12.5,25.2,12.5z"/>
<path class="st0" d="M26.6,12.9C26.6,12.9,26.6,12.9,26.6,12.9C26.6,12.8,26.6,12.9,26.6,12.9z"/>
<path class="st0" d="M25.7,12.9C25.7,12.9,25.7,12.9,25.7,12.9C25.7,12.9,25.7,12.9,25.7,12.9z"/>
<path class="st0" d="M26.3,13.2C26.3,13.2,26.3,13.2,26.3,13.2C26.3,13.2,26.3,13.2,26.3,13.2z"/>
<path class="st0" d="M16.7,15.5C16.7,15.5,16.7,15.5,16.7,15.5C16.7,15.5,16.7,15.5,16.7,15.5z"/>
<path class="st0" d="M16.6,15.5C16.6,15.5,16.6,15.5,16.6,15.5C16.6,15.6,16.6,15.5,16.6,15.5z"/>
<path class="st0" d="M16.6,15.5C16.7,15.5,16.7,15.5,16.6,15.5L16.6,15.5C16.6,15.4,16.6,15.5,16.6,15.5z"/>
<path class="st0" d="M3.7,15.2C3.7,15.2,3.7,15.2,3.7,15.2C3.7,15.2,3.7,15.2,3.7,15.2z"/>
<path class="st0" d="M4.3,15.1C4.3,15.1,4.4,15.1,4.3,15.1C4.4,15.1,4.4,15.1,4.3,15.1z"/>
<path class="st0" d="M3,15.2C3,15.3,3,15.3,3,15.2C3,15.3,3,15.3,3,15.2z"/>
<path class="st0" d="M12.4,9.6C12.4,9.6,12.4,9.6,12.4,9.6C12.4,9.6,12.4,9.6,12.4,9.6C12.4,9.6,12.4,9.6,12.4,9.6z"/>
<path class="st0" d="M12.5,9.9C12.5,9.9,12.5,9.9,12.5,9.9C12.5,9.9,12.5,9.9,12.5,9.9z"/>
<path class="st0" d="M12.6,9.9C12.6,9.9,12.6,9.9,12.6,9.9C12.6,9.9,12.6,9.9,12.6,9.9z"/>
<path class="st0" d="M12.4,9.1C12.4,9.1,12.4,9.1,12.4,9.1C12.4,9.1,12.4,9.1,12.4,9.1L12.4,9.1z"/>
<path class="st0" d="M12.5,9c0,0-0.1-0.1-0.1-0.1l0,0.1C12.4,9,12.5,9,12.5,9z"/>
<path class="st0" d="M12.3,9.3C12.3,9.3,12.3,9.2,12.3,9.3C12.3,9.2,12.3,9.3,12.3,9.3z"/>
<path class="st0" d="M16,21.6C16,21.6,16,21.6,16,21.6C16,21.6,16,21.6,16,21.6z"/>
<path class="st0" d="M15.8,21.2C15.8,21.2,15.8,21.2,15.8,21.2C15.8,21.2,15.8,21.2,15.8,21.2z"/>
<path class="st0" d="M15.8,21.3C15.8,21.3,15.8,21.3,15.8,21.3C15.8,21.3,15.8,21.3,15.8,21.3z"/>
<path class="st0" d="M16,22.4C16,22.4,16,22.4,16,22.4C16,22.3,16,22.4,16,22.4L16,22.4z"/>
<path class="st0" d="M15.9,22.4c0,0,0.1,0.1,0.1,0.1l0-0.1C16,22.4,15.9,22.5,15.9,22.4z"/>
<path class="st0" d="M16.1,22.1C16.1,22.1,16.1,22.1,16.1,22.1C16.1,22.1,16.1,22.1,16.1,22.1z"/>
<path class="st0" d="M13.2,5.9C13.2,5.9,13.2,5.9,13.2,5.9C13.2,5.9,13.2,5.9,13.2,5.9z"/>
<path class="st0" d="M13,4.5C13,4.5,13,4.5,13,4.5C13,4.5,13,4.5,13,4.5L13,4.5z"/>
<path class="st0" d="M13.1,4.4c0,0-0.1-0.1-0.1-0.1l0,0.2C13,4.4,13.1,4.4,13.1,4.4z"/>
<path class="st0" d="M15.8,24.8C15.8,24.8,15.8,24.8,15.8,24.8C15.8,24.8,15.8,24.8,15.8,24.8z"/>
<path class="st0" d="M15.6,24.2C15.6,24.2,15.6,24.2,15.6,24.2C15.6,24.2,15.6,24.2,15.6,24.2z"/>
<path class="st0" d="M15.6,24.3C15.6,24.3,15.6,24.2,15.6,24.3C15.6,24.2,15.6,24.3,15.6,24.3z"/>
<path class="st0" d="M15.8,25.8C15.8,25.8,15.8,25.8,15.8,25.8C15.8,25.8,15.8,25.8,15.8,25.8L15.8,25.8z"/>
<path class="st0" d="M13.6,3.8C13.6,3.8,13.6,3.8,13.6,3.8C13.6,3.8,13.6,3.8,13.6,3.8z"/>
<path class="st0" d="M13.9,4.3C13.9,4.3,13.9,4.3,13.9,4.3C13.9,4.3,13.9,4.3,13.9,4.3z"/>
<path class="st0" d="M15.6,25.9c0,0,0,0.1,0.1,0.1l0-0.2C15.7,25.9,15.7,26,15.6,25.9z"/>
<path class="st0" d="M15.8,25.4C15.8,25.5,15.8,25.5,15.8,25.4C15.8,25.5,15.8,25.5,15.8,25.4z"/>
<path class="st0" d="M15.3,24.9L15.3,24.9C15.3,24.9,15.3,24.9,15.3,24.9z"/>
<path class="st0" d="M14.9,26.1C15,26.1,15,26.1,14.9,26.1C15,26.1,15,26.1,14.9,26.1z"/>
<path class="st0" d="M14.6,25.8C14.6,25.8,14.6,25.8,14.6,25.8C14.6,25.8,14.6,25.8,14.6,25.8z"/>
<path class="st0" d="M26.7,12.9L26.7,12.9c-0.1,0.1-0.1,0-0.1,0c0,0.1,0.1,0.1,0,0.2c0,0-0.1,0-0.1,0c0.1,0,0,0.1-0.1,0.1
	c-0.1,0-0.1,0-0.2-0.1c0,0-0.1,0-0.1,0l0,0c-0.1,0,0,0,0,0.1c0,0-0.1,0-0.2,0c0.1,0,0.1-0.1,0.2-0.1c-0.1,0,0-0.1,0-0.2
	c-0.1,0-0.2,0.1-0.2,0.2c-0.1,0,0-0.2,0-0.2c-0.1,0-0.2,0.2-0.3,0.2c0.1-0.1,0.1-0.1,0.1-0.2c-0.1-0.1-0.1,0-0.1,0.1
	c0,0,0.1,0,0.1,0c-0.1,0-0.1,0.2-0.1,0.2c-0.1,0-0.2,0-0.2-0.1l0,0.1c-0.1,0-0.1-0.1-0.1-0.1c0,0.1,0,0.2-0.1,0.2
	c0-0.2-0.1,0-0.1-0.2c-0.1,0-0.1,0.1-0.2,0.1c-0.1-0.1,0.1-0.2,0.1-0.2c0.1,0,0,0.1,0,0.1l0.1-0.1c-0.1,0-0.2-0.1-0.1-0.1
	c-0.1,0,0.1,0.1,0,0.1l-0.1,0c-0.1,0,0,0.1-0.1,0.1c0.1-0.1-0.1,0-0.1-0.1c0,0.1-0.2,0-0.3,0.2l0.1,0l0-0.1c0.1,0,0.1-0.1,0.2,0
	c-0.1,0.1,0,0.1,0,0.2c-0.1,0.1,0-0.1-0.1-0.1l-0.1,0.1l0.1,0.1c-0.1,0-0.2,0-0.3,0c-0.2-0.1,0-0.1-0.1-0.1c-0.1,0,0,0.1-0.1,0.1
	c0,0,0.1,0,0.1,0c0,0.1-0.1,0.1-0.1,0.1c0,0,0-0.1,0-0.1c-0.1,0-0.3,0-0.3-0.1l-0.1,0.1c-0.2,0,0.2-0.1,0-0.2c-0.1,0-0.2,0-0.2,0.1
	l0.1,0c-0.1,0.1,0,0.1-0.1,0.1c-0.1,0,0-0.1-0.1,0c0,0-0.1,0-0.1,0c0,0,0,0,0-0.1c0,0,0.1,0,0.1,0c0,0,0,0-0.1,0
	c0.1-0.2,0.2-0.3,0.3-0.5c0,0,0.1,0,0.1,0.1c0.3-0.1,0.6,0.1,1,0c-0.1,0,0-0.1,0-0.1c-0.1,0-0.1,0-0.2,0c0-0.1,0.1,0,0.1-0.1
	c0-0.1-0.1,0-0.2,0c0.1,0,0.1,0,0.2-0.1c0.1,0,0.1,0.1,0.1,0.1c0.3,0,0.3-0.1,0.5-0.1c-0.1,0,0,0,0,0l0,0c-0.2,0.1-0.6,0.1-0.6,0.2
	c0.2,0,0.3-0.1,0.6-0.1l0,0c0.2,0,0,0,0-0.1c0.2,0,0.2,0.1,0.4,0l-0.2,0c0.1-0.1,0,0,0-0.1c0.3-0.1,0.7,0,1.1-0.1
	c-0.1,0-0.1-0.1-0.3-0.1c0.1-0.1,0.1-0.1,0.1-0.2l-0.2,0l0-0.1c0,0,0.1,0,0.1,0c0-0.1,0.2,0,0.3,0l-0.1,0c-0.1-0.1,0.1-0.1,0.2-0.1
	c-0.1-0.1-0.3,0-0.5,0c0,0-0.2,0.1,0,0.1c0,0.1-0.1,0.1-0.2,0.1c0,0-0.1-0.1,0-0.2c-0.1,0-0.1,0-0.2,0c0,0-0.3,0-0.3-0.1
	c-0.1,0,0,0.2-0.2,0.2c0.1,0.1,0.3,0.1,0.1,0.2l0.1,0c0.2,0,0,0.1,0.2,0.1c-0.1,0-0.2,0-0.2,0c0,0.2-0.3,0.1-0.3,0.2
	c0,0-0.1,0-0.2,0c0,0,0-0.1,0-0.1c0.1,0,0.1,0,0.2,0c0-0.2-0.3,0-0.5-0.1c0,0,0,0,0,0c-0.1,0-0.4,0-0.3-0.1l-0.6,0c0,0,0.1,0,0.1,0
	l-0.3,0c-0.1,0,0.1,0,0.1-0.1l-0.2,0l0-0.1c-0.1,0-0.3,0-0.4,0c-0.3,0-0.3,0.2-0.6,0.1c0-0.1,0.2,0,0.3-0.1c-0.1,0-0.2,0-0.3,0
	c0,0,0,0,0-0.1l-0.1,0l0-0.1c0,0,0.1,0,0.1,0c0-0.1,0.2,0,0.2-0.1l-0.1,0c-0.1-0.1,0.1-0.1,0.1-0.1c-0.1-0.1-0.2,0-0.4,0
	c0,0-0.1,0.1,0,0.1c0,0-0.1,0.1-0.1,0.1c0,0-0.1-0.1,0-0.2c-0.1,0,0,0-0.2,0c0,0-0.2,0-0.2-0.1c0,0,0,0.2-0.2,0.2
	c0,0.1,0.2,0.1,0.1,0.2l0.1-0.1c0.1,0,0,0.1,0.1,0.1c0,0-0.1,0-0.1,0c0,0.1-0.2,0.1-0.2,0.2c0,0-0.1,0,0-0.1c-0.1,0,0,0,0,0
	c0,0,0,0-0.1,0c0,0,0-0.1,0-0.1c0.1,0,0.1,0,0.1,0c0-0.2-0.2,0-0.3-0.1c0,0,0,0,0,0.1c-0.1,0-0.3,0-0.2-0.1l-0.4,0c0,0,0.1,0,0.1,0
	l-0.2,0c-0.1,0,0.1-0.1,0.1-0.1l-0.2,0l0,0c0,0-0.2,0.1-0.3,0c-0.2,0-0.2,0.2-0.4,0.1c0-0.1,0.1,0,0.2-0.1c-0.1,0-0.2,0-0.2,0
	c-0.1,0-0.1,0.1-0.2,0.2c0,0-0.1,0-0.1,0c0,0,0,0,0,0c0,0,0,0,0,0c-0.2,0-0.5,0-0.7,0l0.2,0.1c-0.1,0-0.1,0-0.1,0.1c0,0,0,0-0.1,0
	c-0.1,0-0.1,0-0.2,0l0,0c-0.1-0.1,0.1-0.1,0.2-0.1c-0.1,0-0.2,0-0.3,0c0,0-0.1,0-0.1,0c-0.2,0-0.2,0-0.3,0.1c0,0,0,0,0.1-0.1l-0.1,0
	c-0.1,0,0-0.1,0-0.1l-0.2,0c-0.1,0,0,0.1-0.1,0.1c-0.2-0.1-0.4,0-0.6,0l0.1,0.1c-0.1,0-0.1,0-0.2,0c-0.1,0-0.1,0-0.2,0
	c0,0,0-0.1-0.1-0.1c-0.1,0-0.2,0.1-0.2,0.1c0,0-0.1,0-0.1,0c0,0-0.2,0-0.1,0c-0.1,0-0.3,0-0.4,0.1c0,0-0.1,0-0.1,0
	c-0.1,0-0.1,0-0.2,0c0,0-0.1,0-0.1,0c0,0,0,0,0,0c-0.1,0-0.2,0-0.4,0c-0.9,0-1.8,0.2-2.7,0.3c0,0,0,0-0.1,0c0,0-0.1,0-0.2,0
	c0-0.2-0.4,0-0.5,0l0,0c-0.1,0.1-0.4,0-0.5,0c-0.2,0-0.6,0-0.8,0.1l0,0c-0.2,0.1-0.3,0-0.5,0.1c0,0,0.1,0,0,0
	c-0.9,0-1.8,0.2-2.7,0.2c-1.8,0.1-3.9,0.2-5.6,0.5c0,0-0.2,0.2-0.4,0.5c-0.2,0.2-0.3,0.5-0.3,0.7c0.1,0-0.2,0.1,0,0.1l0.1-0.1
	c0,0,0.1,0.1,0.1,0.1c0.1-0.1-0.2-0.1,0-0.2c0,0,0.1-0.1,0.2,0c-0.1,0,0-0.1,0.1-0.1c0.1,0,0.2,0,0.3,0c0,0,0.1,0,0.1,0l0,0
	c0.1,0,0,0,0-0.1c0.1,0,0.2,0,0.3,0c-0.1,0-0.2,0.1-0.3,0.1c0.2,0,0,0.1-0.1,0.2c0.2,0,0.2-0.1,0.4-0.2c0.2,0,0,0.2,0,0.2
	c0.2-0.1,0.3-0.2,0.4-0.2c-0.1,0.1-0.1,0.2-0.2,0.2c0.1,0,0.2,0,0.2-0.1l0.1,0c-0.1,0.1,0,0,0,0.1c-0.1,0-0.1,0-0.2,0
	c0,0-0.1,0-0.1,0c-0.2,0-0.4,0-0.6,0.1c0.1,0,0.1,0,0.2,0c0,0.1-0.1,0.1,0,0.2l0.1,0l0,0.1c0,0-0.1,0-0.1,0c0,0.1-0.2,0-0.2,0.1
	l0.1,0c0.1,0.1-0.1,0.1-0.2,0.1c0.1,0.1,0.3,0,0.4,0c0,0,0.2-0.1,0-0.1c0,0,0.1-0.1,0.2-0.1c0,0,0,0.1,0,0.1l0,0l0,0c0,0,0,0,0,0.1
	c0,0,0,0,0,0c0,0,0,0,0,0c0.1,0.1,0.3,0,0.5,0c0,0,0,0,0,0c0,0,0,0,0,0c0.1-0.1,0-0.2,0.2-0.2c0,0,0,0,0,0c0,0,0,0,0,0
	c0,0,0,0.1,0,0.1c0.1,0,0.1,0,0.2,0c0,0,0.3,0,0.3,0.1c0.1,0,0-0.2,0.2-0.1c0-0.1-0.3-0.1-0.1-0.2l-0.1,0c-0.1,0,0-0.1-0.1-0.1
	c0.1,0,0.2,0,0.2,0c0,0,0,0,0,0c0,0,0,0,0.1,0c0.1,0,0.2,0,0.1,0.1l0.1,0c0.1,0.1,0.3,0,0.4,0.1c0,0,0,0,0.1,0l0,0l0,0c0,0,0,0,0,0
	l0.2,0l0,0c0,0,0,0,0.1,0c0,0,0,0,0,0l0.5,0c0,0-0.1,0-0.1,0l0.3,0c0.1,0.1-0.1,0-0.1,0.1l0.2,0l0,0c0.1,0,0.3,0,0.4,0
	c0.2,0,0.2-0.2,0.6-0.1c0,0.1-0.2,0-0.3,0.1c0.1,0,0.3,0,0.3,0.1c0.2,0,0.2-0.2,0.3-0.2c0.2,0,0,0.1,0,0.1c0.1,0,0.2-0.1,0.2,0
	c0.1-0.1,0.2-0.1,0-0.1c0.1,0,0.2,0,0.3-0.1c-0.1,0.1,0.1,0,0.1,0.1c0.1,0,0.2,0,0.3,0l0.1,0c-0.1,0.1,0,0,0,0.1
	c-0.1,0.1-0.4,0-0.6,0.1c0.1,0.1,0.1,0.1,0.1,0.1c0,0.1-0.1,0.1,0,0.2l0.1,0l0,0.1c0,0-0.1,0-0.1,0c0,0.1-0.1,0-0.1,0l0.1,0
	c0,0.1-0.1,0.1-0.1,0.1c0.1,0.1,0.2,0,0.3,0c0,0,0.1-0.1,0-0.1c0,0,0.1-0.1,0.1-0.1c0,0,0.1,0.1,0,0.2c0.1,0,0,0,0.1,0
	c0,0,0.2,0,0.2,0.1c0,0,0-0.2,0.1-0.2c0-0.1-0.2-0.1-0.1-0.2l-0.1,0c-0.1,0,0-0.1-0.1-0.1c0,0,0.1,0,0.1,0c0-0.2,0.2-0.1,0.2-0.2
	c0,0,0.1,0.1,0.1,0c0,0,0,0.1,0,0.1c0,0-0.1,0-0.1,0c0,0.2,0.2,0,0.2,0.1c0,0,0,0,0,0c0.1,0,0.2,0,0.2,0.1l0.3,0c0,0,0,0-0.1,0
	l0.2,0c0,0-0.1,0-0.1,0.1l0.1,0l0,0c0,0,0.2,0,0.2,0c0.1,0,0.1-0.2,0.3-0.1c0,0.1-0.1,0-0.1,0.1c0,0,0.1,0,0.2,0
	c0.1,0,0.1-0.2,0.2-0.3c0.1,0,0,0.1,0,0.1c0,0,0.1-0.1,0.1,0c0-0.1,0.1-0.1,0-0.1c0.1,0,0.1,0,0.2,0c0,0,0,0,0,0
	c0.1,0,0.3,0,0.4-0.1l0,0.1l0.1,0c0.1,0.1-0.1,0.1-0.1,0.1c0.1,0,0.2,0,0.3,0c0,0,0-0.1,0-0.1c0-0.1,0.1,0,0.1,0c0,0,0,0.1,0,0.1
	l0.1,0c0,0.1,0,0.1,0,0.1l0.1,0c0.1,0,0,0.1,0,0.1l0.1,0c0.1,0,0-0.1,0.1-0.1c0.1,0.1,0.3,0,0.4,0.1l-0.1-0.1c0.1,0,0.1-0.1,0.1-0.2
	c0.1,0,0.2,0,0.2,0c-0.1,0.1,0,0.1,0,0.2c0.2,0,0.1-0.1,0.2-0.2c-0.1,0.2,0.1,0.1,0.1,0.1c0.2,0,0.4-0.1,0.6-0.1c0,0-0.1,0,0-0.1
	c0.1,0,0.1,0,0.1,0c0.6,0,1.2-0.2,1.7-0.2c0.5,0,1,0,1.4,0.1c0,0,0,0,0,0c0,0,0,0,0.1-0.1c0,0,0,0,0,0c0,0,0,0,0,0
	c0.2,0,0.4,0,0.6,0c0,0.1-0.1,0.1,0,0.1c0.1,0,0.1-0.1,0.2-0.1c0,0,0,0,0,0c0,0,0.1,0,0.1,0c0,0,0,0,0.1,0c0,0,0,0.1,0,0.1
	c0,0,0.1,0,0.1-0.1c0.1,0,0.1,0,0.2,0c0,0,0,0,0,0c0,0,0,0,0,0c0.1,0,0.2,0,0.2,0c0,0,0,0.1,0,0.1c0,0,0-0.1,0.1-0.1c0,0,0,0,0,0
	c0,0,0,0,0.1,0c0,0,0,0,0,0l0,0c0.1,0,0.2,0,0.4,0c0,0,0,0,0.1,0c0,0,0,0,0,0c0.8,0.1,1.7,0,2.6,0c1.6,0,3.6,0.1,5.2-0.1
	c0,0,0.8-0.8,0.7-1.1c-0.1,0,0.2-0.1,0-0.1l-0.1,0.1c0,0,0-0.1,0-0.1c0,0,0.1,0,0.1,0c0,0,0.1-0.2,0.2-0.4c0.1-0.2,0.2-0.5,0.1-0.7
	C26.7,13,26.8,12.9,26.7,12.9z"/>
<path class="st0" d="M12.4,12.5L12.4,12.5C12.4,12.5,12.4,12.5,12.4,12.5C12.4,12.5,12.4,12.5,12.4,12.5z"/>
<path class="st0" d="M12.5,17.4C12.5,17.5,12.5,17.5,12.5,17.4C12.5,17.5,12.5,17.4,12.5,17.4z"/>
<path class="st0" d="M12.5,17.4C12.5,17.4,12.5,17.4,12.5,17.4C12.4,17.4,12.5,17.4,12.5,17.4z"/>
<path class="st0" d="M12.5,17.4C12.5,17.4,12.5,17.4,12.5,17.4L12.5,17.4C12.5,17.3,12.5,17.4,12.5,17.4z"/>
<path class="st0" d="M13,6C13,6,13,6,13,6C13,6,13,6,13,6z"/>
<path class="st0" d="M13.1,6.5C13.1,6.6,13.1,6.6,13.1,6.5C13.1,6.6,13.1,6.6,13.1,6.5z"/>
<path class="st0" d="M13,5.4C13,5.4,13,5.4,13,5.4C13,5.4,13,5.4,13,5.4z"/>
</svg>
