<svg width="31" height="31" viewBox="0 0 31 31" fill="none" xmlns="http://www.w3.org/2000/svg">
<g clip-path="url(#clip0)">
<path d="M23.2841 0.670787L19.3973 0.664551C15.0306 0.664551 12.2086 3.55981 12.2086 8.04098V11.442H8.30062C7.96292 11.442 7.68945 11.7158 7.68945 12.0535V16.9812C7.68945 17.3189 7.96323 17.5924 8.30062 17.5924H12.2086V30.0265C12.2086 30.3642 12.4821 30.6377 12.8198 30.6377H17.9186C18.2563 30.6377 18.5298 30.3639 18.5298 30.0265V17.5924H23.0992C23.4369 17.5924 23.7103 17.3189 23.7103 16.9812L23.7122 12.0535C23.7122 11.8913 23.6476 11.7361 23.5332 11.6213C23.4188 11.5066 23.2629 11.442 23.1007 11.442H18.5298V8.55892C18.5298 7.17319 18.86 6.46972 20.6651 6.46972L23.2834 6.46878C23.6208 6.46878 23.8943 6.195 23.8943 5.85761V1.28196C23.8943 0.944878 23.6211 0.671411 23.2841 0.670787Z" fill="white" fill-opacity="0.5"/>
</g>
<defs>
<clipPath id="clip0">
<rect width="29.9732" height="29.9732" fill="white" transform="matrix(1 0 0 -1 0.805664 30.6377)"/>
</clipPath>
</defs>
</svg>
