<svg width="31" height="31" viewBox="0 0 31 31" fill="none" xmlns="http://www.w3.org/2000/svg">
<g clip-path="url(#clip0)">
<path d="M22.4436 0.664551H8.69743C4.2236 0.664551 0.583984 4.30417 0.583984 8.778V22.5244C0.583984 26.998 4.2236 30.6376 8.69743 30.6376H22.4439C26.9175 30.6376 30.5571 26.998 30.5571 22.5244V8.778C30.5571 4.30417 26.9175 0.664551 22.4436 0.664551V0.664551ZM15.5705 23.8466C11.0514 23.8466 7.37499 20.1702 7.37499 15.6511C7.37499 11.132 11.0514 7.45556 15.5705 7.45556C20.0896 7.45556 23.7661 11.132 23.7661 15.6511C23.7661 20.1702 20.0896 23.8466 15.5705 23.8466ZM23.962 9.38833C22.6266 9.38833 21.5404 8.30212 21.5404 6.96665C21.5404 5.63118 22.6266 4.54473 23.962 4.54473C25.2975 4.54473 26.384 5.63118 26.384 6.96665C26.384 8.30212 25.2975 9.38833 23.962 9.38833Z" fill="white" fill-opacity="0.5"/>
<path d="M15.5708 10.2017C12.5659 10.2017 10.1211 12.6463 10.1211 15.6513C10.1211 18.6561 12.5659 21.101 15.5708 21.101C18.5758 21.101 21.0204 18.6561 21.0204 15.6513C21.0204 12.6463 18.5758 10.2017 15.5708 10.2017Z" fill="white" fill-opacity="0.5"/>
</g>
<defs>
<clipPath id="clip0">
<rect width="29.9732" height="29.9732" fill="white" transform="translate(0.583984 0.664551)"/>
</clipPath>
</defs>
</svg>
