<svg width="32" height="32" viewBox="0 0 32 32" fill="none" xmlns="http://www.w3.org/2000/svg">
<g clip-path="url(#clip0)">
<path d="M31.3355 6.61652C30.1822 7.12757 28.9447 7.47415 27.6445 7.62888C28.9721 6.83387 29.9883 5.57287 30.47 4.07491C29.2247 4.81114 27.85 5.34574 26.3854 5.63554C25.2125 4.38432 23.5442 3.60498 21.6937 3.60498C18.1437 3.60498 15.2653 6.4834 15.2653 10.0315C15.2653 10.5347 15.3221 11.0262 15.4317 11.4962C10.0901 11.2279 5.35342 8.66864 2.18325 4.77981C1.62909 5.72755 1.31384 6.83188 1.31384 8.0107C1.31384 10.241 2.44955 12.2089 4.1727 13.3602C3.11922 13.325 2.12841 13.0352 1.261 12.5535V12.6338C1.261 15.7471 3.47758 18.3455 6.41667 18.9369C5.87818 19.0818 5.31035 19.1621 4.72292 19.1621C4.30782 19.1621 3.9064 19.121 3.51281 19.0426C4.33127 21.598 6.70453 23.4562 9.51639 23.5071C7.31742 25.2303 4.54473 26.2544 1.53319 26.2544C1.01431 26.2544 0.503212 26.223 0 26.1663C2.84514 27.9932 6.22287 29.0584 9.85319 29.0584C21.6782 29.0584 28.1419 19.2639 28.1419 10.7697L28.1203 9.93752C29.3833 9.03673 30.4759 7.90496 31.3355 6.61652Z" fill="white" fill-opacity="0.5"/>
</g>
<defs>
<clipPath id="clip0">
<rect width="31.3356" height="31.3356" fill="white" transform="matrix(1 0 0 -1 0 32)"/>
</clipPath>
</defs>
</svg>
