<svg id="Layer_1" data-name="Layer 1" xmlns="http://www.w3.org/2000/svg" viewBox="0 0 60.73 60.73"><defs><style>.cls-1{fill:#fff;}</style></defs><title>Fb Icon</title><path class="cls-1" d="M270.46,211h-54a3.35,3.35,0,0,0-3.35,3.35v54a3.35,3.35,0,0,0,3.35,3.35h29.09V248.21h-7.91V239h7.91v-6.76c0-7.84,4.79-12.12,11.79-12.12a65.64,65.64,0,0,1,7.07.36v8.2h-4.85c-3.81,0-4.54,1.81-4.54,4.46V239h9.08l-1.19,9.17H255v23.52h15.47a3.36,3.36,0,0,0,3.35-3.35v-54A3.35,3.35,0,0,0,270.46,211Z" transform="translate(-213.08 -211)"/></svg>