<svg id="Layer_1" data-name="Layer 1" xmlns="http://www.w3.org/2000/svg" viewBox="0 0 45.33 46.27"><defs><style>.cls-1{fill:#fff;}</style></defs><title>Google icon</title><path class="cls-1" d="M252.43,228.87A23.12,23.12,0,0,0,268,250.74c8.61,2.89,19.21.73,24.94-6.65,4.19-5.17,5.14-12.06,4.68-18.5-7.38-.07-14.75,0-22.12,0,0,2.63,0,5.25,0,7.87,4.42.12,8.83.07,13.25.15-1.12,3.82-3.65,7.38-7.51,8.76-7.44,3.28-16.94-1-19.28-8.81-2.83-7.48,1.8-16.5,9.44-18.67,4.74-1.67,9.62.21,13.67,2.67,2.05-1.92,4-4,5.86-6.05a23.13,23.13,0,0,0-16.61-5.7C262.42,205.92,252,216.94,252.43,228.87Z" transform="translate(-252.41 -205.71)"/></svg>