<svg id="Layer_1" data-name="Layer 1" xmlns="http://www.w3.org/2000/svg" viewBox="0 0 126.72 126.72"><defs><style>.cls-1{fill:#fff;}</style></defs><title>Linked in icon</title><path id="LinkedIn_alt_" data-name="LinkedIn (alt)" class="cls-1" d="M304,167.62H196a9.22,9.22,0,0,0-9.36,9.08V285.25a9.23,9.23,0,0,0,9.36,9.08H304a9.22,9.22,0,0,0,9.36-9.08V176.7A9.22,9.22,0,0,0,304,167.62ZM225.06,273.69H205.91V216.48h19.15Zm-9.57-65h-.13c-6.42,0-10.58-4.39-10.58-9.89s4.28-9.88,10.83-9.88,10.58,4.27,10.7,9.88S222.16,208.66,215.49,208.66Zm78.59,65H274.93V243.08c0-7.69-2.77-12.94-9.69-12.94-5.3,0-8.44,3.54-9.82,7a12.79,12.79,0,0,0-.64,4.63v32H235.65s.25-51.85,0-57.21h19.14v8.11c2.54-3.9,7.08-9.46,17.24-9.46,12.6,0,22,8.17,22,25.75v32.81Zm-39.41-48.92.12-.18v.18Z" transform="translate(-186.64 -167.62)"/></svg>