<svg width="20" height="20" viewBox="0 0 20 20" fill="none" xmlns="http://www.w3.org/2000/svg">
<g clip-path="url(#clip0)">
<path d="M9.99577 8.0733L17.478 15.5552C17.6836 15.7613 17.9584 15.8746 18.2514 15.8746C18.5446 15.8746 18.8192 15.7613 19.025 15.5552L19.6803 14.8996C19.8865 14.6939 20 14.419 20 14.126C20 13.833 19.8865 13.5583 19.6803 13.3525L10.772 4.44403C10.5655 4.23736 10.2896 4.12419 9.99626 4.125C9.70163 4.12419 9.42602 4.2372 9.21935 4.44403L0.319679 13.3442C0.1135 13.55 3.98676e-06 13.8247 3.97394e-06 14.1178C3.96113e-06 14.4109 0.1135 14.6855 0.319679 14.8915L0.974963 15.547C1.40147 15.9735 2.09578 15.9735 2.52212 15.547L9.99577 8.0733Z" fill="white"/>
</g>
<defs>
<clipPath id="clip0">
<rect width="20" height="20" fill="white" transform="translate(20) rotate(90)"/>
</clipPath>
</defs>
</svg>
