<svg width="86" height="44" viewBox="0 0 86 44" fill="none" xmlns="http://www.w3.org/2000/svg">
<g clip-path="url(#clip0)">
<path fill-rule="evenodd" clip-rule="evenodd" d="M10.8894 21.7598H7.20247H1.42437C0.708984 21.7598 0.708984 21.7598 0.708984 22.2534V41.1778C0.708984 41.2875 0.819043 41.6166 1.25928 41.6166C1.64449 41.6166 5.44152 41.6166 5.82673 41.6166C6.26697 41.6166 6.26697 41.6166 6.26697 41.2326V37.3929C6.26697 36.8444 6.26697 36.7895 6.76223 36.7895H7.14744H10.8344C13.0356 36.6798 13.5309 36.1861 13.5309 33.7178V24.3379C13.5859 22.2534 13.0356 21.7598 10.8894 21.7598ZM8.08294 33.5532C8.08294 34.1566 7.58768 34.4308 7.20247 34.4308C6.76223 34.4308 6.322 34.1017 6.322 33.4983V24.8315C6.322 24.2282 6.76223 23.9539 7.20247 23.9539C7.64271 23.9539 8.08294 24.283 8.08294 24.8864V33.5532Z" fill="#A4A4A4" stroke="#A4A4A4" stroke-width="0.216" stroke-miterlimit="2.6131"/>
<path fill-rule="evenodd" clip-rule="evenodd" d="M28.444 22.2533C28.444 21.8145 28.3339 21.9242 27.9487 21.8145H23.4363C22.941 21.8145 22.941 21.8145 22.941 22.2533V37.9413C22.941 39.4772 21.1801 39.4223 21.1801 37.9413V22.2533C21.1801 21.8145 21.1801 21.8145 20.7399 21.8145H16.0073C15.457 21.8145 15.457 21.8145 15.457 22.2533V38.8189C15.457 41.2873 16.0073 41.6713 17.4931 41.6713H26.2428C27.9487 41.6713 28.499 41.2325 28.444 38.9835V22.2533V22.2533Z" fill="#A4A4A4" stroke="#A4A4A4" stroke-width="0.216" stroke-miterlimit="2.6131"/>
<path fill-rule="evenodd" clip-rule="evenodd" d="M48.145 21.7598H32.5717C30.7007 21.7598 30.1504 22.1986 30.1504 24.0087V41.2326C30.1504 41.6166 30.1504 41.6166 30.7007 41.6166H35.048C35.6533 41.6166 35.6533 41.6166 35.6533 41.2326V25.051C35.6533 23.6248 37.4143 23.4602 37.4143 25.051V41.2875C37.4143 41.6715 37.4143 41.6715 38.0746 41.6715H42.422C42.9172 41.6715 42.9172 41.6715 42.9172 41.2875V25.051C42.9172 23.7345 44.6782 23.6248 44.6782 25.051V41.2875C44.6782 41.6715 44.6782 41.6715 45.2285 41.6715H49.6859C50.1811 41.6715 50.1811 41.6715 50.1811 41.2875V23.9539C50.2362 22.2534 49.6859 21.7598 48.145 21.7598Z" fill="#A4A4A4" stroke="#A4A4A4" stroke-width="0.216" stroke-miterlimit="2.6131"/>
<path fill-rule="evenodd" clip-rule="evenodd" d="M63.2224 21.7598H58.71H54.3626C52.8768 21.7598 52.2715 22.1986 52.2715 23.9539V41.2875C52.2715 41.6715 52.2715 41.6715 52.8768 41.6715H57.2242C57.7744 41.6715 57.7744 41.6715 57.7744 41.2875V37.3929C57.8295 36.7895 58.2147 36.4604 58.6549 36.4604C59.0952 36.4604 59.5354 36.7895 59.5354 37.4478V41.2875C59.5354 41.6715 59.5354 41.6715 60.0857 41.6715H64.5981C65.0384 41.6715 65.0384 41.6715 65.0384 41.2875V23.9539C65.1484 22.2534 64.6531 21.7598 63.2224 21.7598ZM59.5904 33.5532C59.5904 34.1017 59.1502 34.376 58.71 34.3211C58.2697 34.3211 57.8295 34.0469 57.8295 33.5532V25.051C57.8295 24.4476 58.2697 24.1733 58.71 24.1733C59.1502 24.1733 59.5904 24.5024 59.5904 25.051V33.5532Z" fill="#A4A4A4" stroke="#A4A4A4" stroke-width="0.216" stroke-miterlimit="2.6131"/>
<path fill-rule="evenodd" clip-rule="evenodd" d="M69.9916 38.5996C69.9366 38.5996 69.9366 38.5996 69.9916 38.5996C68.6709 38.5996 67.5703 39.6967 67.5703 41.0131C67.5703 42.3296 68.6709 43.3718 69.9366 43.3718C69.9366 43.3718 69.9366 43.3718 69.9916 43.3718C71.3123 43.3718 72.3579 42.2748 72.3579 41.0131C72.3579 39.6418 71.3123 38.5996 69.9916 38.5996ZM71.8626 41.1777C71.6975 42.1651 70.9271 42.8782 69.9916 42.8782C69.7165 42.8782 69.4964 42.8233 69.2212 42.7684C68.4508 42.3845 68.0106 41.7262 68.0656 40.8486C68.2307 39.7515 69.1111 39.0933 69.9916 39.1481C70.5419 39.1481 71.0372 39.3676 71.4224 39.8612C71.7526 40.1903 71.8626 40.5743 71.8626 41.1777Z" fill="#A4A4A4" stroke="#A4A4A4" stroke-width="0.216" stroke-miterlimit="2.6131"/>
<path fill-rule="evenodd" clip-rule="evenodd" d="M70.7613 41.0123C70.9264 40.8477 71.0364 40.6283 71.0364 40.4089C71.0364 40.1895 70.9264 39.9701 70.7063 39.8055C70.5412 39.641 70.266 39.5861 69.9909 39.5312C69.9909 39.5312 69.9358 39.5312 69.8808 39.5312H68.9453V42.3836H69.4406V41.2866H69.8258L70.0459 41.6157L70.6512 42.3836H71.0915L70.211 41.2317C70.3211 41.2866 70.5412 41.1768 70.7613 41.0123ZM69.8808 40.9026H69.3855V39.8055H69.8808C69.9358 39.8055 69.9358 39.8055 69.9909 39.8055C70.156 39.8055 70.266 39.8604 70.3761 39.9701C70.4861 40.0798 70.5962 40.1895 70.5962 40.354C70.5962 40.5186 70.5412 40.6283 70.3761 40.738C70.266 40.8477 70.156 40.9026 69.9909 40.9026C69.9358 40.9026 69.9358 40.9026 69.8808 40.9026Z" fill="#A4A4A4" stroke="#A4A4A4" stroke-width="0.216" stroke-miterlimit="2.6131"/>
<path fill-rule="evenodd" clip-rule="evenodd" d="M84.9598 1.51844C84.5196 0.860203 83.6391 1.02476 82.5385 1.57329C81.1078 2.17668 78.5764 4.97419 77.9711 6.56493C77.4208 8.81391 76.1551 10.8983 74.009 13.1473C71.9178 14.8478 68.1758 14.1895 65.9746 12.8182C65.8646 12.8182 56.9498 5.90669 56.9498 5.90669C53.7581 3.38345 51.5569 2.34124 48.8604 2.01212C48.7504 1.95727 48.5853 1.79271 48.5853 1.683C48.1451 0.750497 48.09 0.860203 47.8149 0.585938C47.4847 0.860203 47.2096 1.02476 46.8794 1.13447C46.7143 1.13447 46.7143 1.13447 46.6042 1.07962C46.3841 0.96991 46.164 0.80535 45.9439 0.80535C45.6687 0.860203 45.4486 1.40873 45.1184 1.95727C45.1184 1.95727 44.5131 2.5058 43.9628 2.94462C43.7427 3.10918 43.7427 3.4383 43.5776 3.60286C43.3025 3.93198 42.9172 4.42566 42.8622 4.42566C42.7522 4.80963 42.6971 5.13875 42.9173 5.30331C42.9173 5.74213 43.1374 5.85184 43.1924 5.90669C43.2474 6.0164 43.2474 6.07125 43.3575 6.18096C43.5226 6.23581 43.6326 6.29067 43.7977 6.29067C44.6782 7.05861 45.0084 7.05861 45.9989 6.9489C47.7048 7.05861 47.5948 7.662 47.5397 8.53965C47.4297 8.64935 47.4297 8.64935 47.2646 8.7042C46.4942 8.7042 45.6687 8.53965 44.9533 8.53965C43.2474 8.70421 41.8167 8.97847 41.9817 11.008C42.0918 11.776 43.5226 12.873 44.293 11.392C44.4031 10.7338 44.9533 11.008 45.4486 11.1726C48.4752 12.4891 50.8415 13.1473 52.4374 11.776C52.9326 11.1726 53.2078 11.6114 53.703 11.9405C56.1243 14.7929 59.5912 16.6579 64.9291 16.7128C66.69 17.1516 68.0658 17.8647 68.7261 19.62C70.377 23.8437 72.4681 27.2446 75.5498 28.9999C75.2746 31.6877 75.3847 33.8818 78.0811 34.4303C78.7965 33.8818 77.806 33.0042 78.6314 31.0294C78.5764 30.1518 77.806 29.4387 77.5308 27.7931C74.3942 25.215 75.7149 24.1728 75.2196 22.4723C75.1646 19.9491 74.6143 18.0292 73.5687 16.1642C73.4587 15.8351 73.6237 15.6157 73.9539 15.4511C75.7149 14.1347 76.7054 12.8182 77.1456 11.5566C77.806 9.30759 78.9066 7.55229 80.5024 6.29067C81.8232 5.1936 83.1439 4.86448 84.5746 3.93198C85.5101 2.6155 85.4001 2.17668 84.9598 1.51844Z" fill="#A4A4A4" stroke="#A4A4A4" stroke-width="0.216" stroke-miterlimit="2.6131"/>
</g>
<defs>
<clipPath id="clip0">
<rect width="84.6905" height="42.8952" fill="white" transform="translate(0.654297 0.53125)"/>
</clipPath>
</defs>
</svg>
