<svg width="84" height="44" viewBox="0 0 84 44" fill="none" xmlns="http://www.w3.org/2000/svg">
<g clip-path="url(#clip0)">
<path d="M25.9031 22.8619H20.178L20.8283 13.0154L17.1178 22.8619H11.8008L20.2418 0.59375H25.8903L25.24 10.5791L29.027 0.59375H34.344L25.9031 22.8619Z" fill="#A4A4A4"/>
<path d="M26.5918 22.8619L35.0328 0.59375H40.3498L31.9088 22.8619H26.5918Z" fill="#A4A4A4"/>
<path d="M11.1897 15.1871C3.76881 23.8216 -3.24408 35.3092 2.95277 40.5985C8.9456 45.7237 16.443 42.694 21.5561 40.6616C26.6691 38.6418 83.1548 14.3539 83.1548 14.3539C83.7031 14.0888 83.6011 13.748 82.9125 13.9121C82.632 13.9752 21.4158 30.4112 21.4158 30.4112C13.6379 32.5698 4.78887 27.8738 11.1897 15.1871Z" fill="#A4A4A4"/>
<path d="M67.8918 0.53125C67.2288 0.53125 66.7188 0.985701 66.7188 1.65476C66.7188 2.32381 67.2415 2.77826 67.8918 2.77826C68.5421 2.77826 69.0649 2.32381 69.0649 1.65476C69.0649 0.985701 68.5549 0.53125 67.8918 0.53125ZM67.8918 2.45005C67.42 2.45005 67.0758 2.10921 67.0758 1.65476C67.0758 1.2003 67.42 0.846841 67.8918 0.846841C68.3636 0.846841 68.7079 1.2003 68.7079 1.65476C68.7079 2.10921 68.3636 2.45005 67.8918 2.45005Z" fill="#A4A4A4"/>
<path d="M68.0957 1.73051C68.2615 1.71788 68.389 1.64214 68.389 1.41491C68.389 1.12457 68.1977 1.04883 67.879 1.04883H67.4199V2.2607H67.7259V1.74313H67.7769L68.0575 2.2607H68.4145L68.0957 1.73051ZM67.8917 1.54115H67.7132V1.26343H67.8662C67.9555 1.26343 68.0575 1.27605 68.0575 1.38967C68.0575 1.5159 68.0065 1.54115 67.8917 1.54115Z" fill="#A4A4A4"/>
<path d="M64.386 4.30511L65.8141 0.59375H55.1673H55.1163H49.5952L44.0231 7.27166L46.5988 0.59375H41.218L32.8535 22.8493H38.1706L41.7408 13.5456L41.983 22.8493L58.2912 22.8114L59.8468 18.532H53.6499L55.6901 13.1417H60.8031L62.3714 8.98848H57.2584L59.0052 4.30511H64.386ZM47.2618 21.3723L46.9176 9.77115L54.9505 1.03558L47.2618 21.3723Z" fill="#A4A4A4"/>
</g>
<defs>
<clipPath id="clip0">
<rect width="82.9307" height="42.8952" fill="white" transform="translate(0.568359 0.53125)"/>
</clipPath>
</defs>
</svg>
