<svg width="64" height="62" viewBox="0 0 64 62" fill="none" xmlns="http://www.w3.org/2000/svg">
<g clip-path="url(#clip0)">
<path d="M33.5934 0C33.3019 0 32.1359 0.582328 31.961 1.16466C32.6606 1.68875 33.6517 1.97992 34.5845 2.56224H32.3691C29.9789 2.56224 29.2793 3.84336 28.5797 6.52207C28.4048 6.28914 26.889 3.9016 26.2477 3.9016C25.898 3.9016 24.2073 4.60039 23.0996 4.89155C23.8575 4.0763 24.8486 3.2028 25.5482 2.38754C25.2567 1.97992 25.1401 1.51405 24.9652 1.04819C25.4899 0.989958 25.898 1.22289 27.9384 0.873492C29.9789 0.465862 31.7861 0.0582328 33.5934 0Z" fill="#A4A4A4"/>
<path d="M40.0635 2.5625C40.8214 3.43599 41.521 4.71711 42.3372 5.70707C43.27 6.87173 44.3776 7.80345 45.2521 8.96811C44.7274 8.85164 44.1444 8.73518 43.4449 8.56048C43.3283 8.67694 43.3283 8.73518 43.3283 9.08457C43.3283 9.43397 43.4449 10.3657 43.5615 12.0544C42.7453 10.8316 41.8708 9.55043 40.8797 8.26931C39.5971 8.44401 38.3146 8.56048 36.9154 8.85164C37.4984 7.74522 38.9558 6.2894 38.9558 5.88177C38.9558 5.06651 36.0409 3.37776 35.6328 2.79543C37.032 3.02836 38.3729 3.31953 39.5971 3.90185C39.8886 3.55246 40.0635 2.85366 40.0635 2.5625Z" fill="#A4A4A4"/>
<path d="M21.6408 3.31836C21.3493 4.01715 21.0578 4.71595 20.7663 5.24004C21.1744 5.35651 21.6991 5.35651 22.3987 5.41474C20.2999 6.5794 19.1339 8.90871 19.4254 10.7139C18.9007 10.2481 18.6092 9.84044 18.376 9.43281C18.0262 9.84044 17.5598 10.4228 17.0352 11.1798C17.3849 8.44285 18.7258 5.64767 21.6408 3.31836Z" fill="#A4A4A4"/>
<path d="M28.6952 6.75586C29.6279 7.92052 30.5024 9.25987 31.4935 10.4245L36.3323 9.1434C35.6327 10.3663 33.5923 12.8703 33.5923 13.2779C33.5923 13.6856 35.7493 15.8402 36.9153 17.1213C35.108 17.0048 33.3591 16.5972 31.6101 16.1313C30.7939 17.4125 29.9194 18.7518 28.9284 20.0912C28.5786 18.5771 28.462 16.9466 28.2288 15.3743C27.1794 14.6755 25.4304 14.2097 24.0312 13.5691C25.3721 12.7538 26.8296 12.1715 28.0539 11.4727C28.3454 10.0169 28.5203 8.44461 28.6952 6.75586Z" fill="#A4A4A4"/>
<path d="M19.4253 11.2969C20.0083 14.9073 19.3087 13.7427 21.6407 13.8009H23.273C22.3985 14.6161 20.533 16.5378 20.533 16.8872C20.533 17.2366 21.4075 18.7507 21.699 19.8571C20.8828 19.4495 19.8334 18.6924 19.4836 18.6924C18.9589 18.6924 18.4925 20.4394 18.1427 20.7306C17.4431 18.9254 18.4925 17.2366 16.627 15.4314C18.0844 13.9174 18.4342 12.8109 19.4253 11.2969Z" fill="#A4A4A4"/>
<path d="M43.9106 13.0449C44.1438 14.1513 44.1438 15.316 44.2604 16.4224L44.4936 16.6554C44.9017 16.3642 45.4847 15.9566 46.126 15.4907C45.8345 17.063 45.0183 17.8782 44.377 19.2176C43.9689 20.0911 43.794 21.4887 43.5025 22.4204C43.0361 22.3039 42.6864 21.8381 42.2783 21.5469C41.1706 22.1292 39.8297 22.5369 38.6054 23.1192C39.1884 22.1292 39.5965 21.1393 40.1795 20.324C39.305 19.3341 38.139 18.4606 37.4395 17.3541C38.0807 17.2959 39.1301 17.4706 39.4799 17.4706C42.8029 17.5288 42.1034 17.063 43.9106 13.0449Z" fill="#A4A4A4"/>
<path d="M28.7537 20.4395C28.812 21.2547 28.5206 23.9334 28.5206 24.2828C28.5206 25.3892 30.6776 26.0298 31.144 26.2045C30.3278 26.2627 29.4533 26.4374 28.6372 26.3792C28.6372 26.4957 28.5206 26.3792 28.5206 26.7868C28.5206 27.1945 28.6372 27.9515 28.812 28.592C27.7627 28.0679 26.3635 26.8451 24.9643 26.1463C23.9732 25.6804 21.8745 25.331 21 24.3993C21.9328 24.2246 22.8073 24.0499 23.6234 23.817C23.1571 22.8852 22.5741 21.837 22.3409 20.7306C23.4486 21.4876 24.4396 22.1864 25.4307 22.8852C26.2469 22.5358 27.5295 21.4876 28.7537 20.4395Z" fill="#A4A4A4"/>
<path d="M38.256 23.6426V25.8554C38.4309 25.9719 38.3726 25.9719 38.7224 25.9719C39.0722 25.9719 40.3548 25.3896 41.3459 25.1566C38.3726 27.6024 34.9913 28.8253 31.7266 29C32.0764 28.7671 32.7759 28.3594 33.4755 27.9518C33.0674 27.4277 32.3096 27.0201 31.9015 26.4378H35.6909C36.5654 25.5643 37.4398 24.5743 38.256 23.6426Z" fill="#A4A4A4"/>
<path d="M5.4924 46.8775L5.4341 45.5964C4.90941 45.3052 4.15153 45.0723 3.39364 45.0723C1.52808 45.0723 0.128906 46.2952 0.128906 48.4498C0.128906 50.5461 1.46978 51.7108 3.39364 51.7108C3.97663 51.7108 4.90941 51.5943 5.6673 51.1285L5.7839 49.6727H5.4341C5.25921 50.4297 4.50132 51.1867 3.56854 51.1867C2.86895 51.1867 1.70298 50.7791 1.70298 48.5662C1.70298 46.4116 2.69406 45.6546 3.56854 45.6546C4.09323 45.6546 4.73452 45.9458 5.14261 46.8775H5.4924V46.8775Z" fill="#A4A4A4"/>
<path d="M7.94012 50.6633C7.94012 51.071 7.76522 51.1292 7.41543 51.1292H7.29883V51.5951H10.0972V51.1292H9.98058C9.63078 51.1292 9.45589 51.071 9.45589 50.6633V48.334H11.8461V50.6633C11.8461 50.8963 11.8461 51.1292 11.3214 51.1292H11.2049V51.5951H14.0032V51.1292H13.8866C13.3619 51.1292 13.3619 50.8963 13.3619 50.6633V46.1794C13.3619 45.8882 13.3619 45.6553 14.0032 45.7135V45.2477H11.2049V45.7135H11.3214C11.8461 45.7135 11.8461 45.9465 11.8461 46.1794V47.7517H9.45589V46.1212C9.45589 45.7135 9.63078 45.6553 9.98058 45.6553H10.0972V45.1895H7.29883V45.6553H7.41543C7.76522 45.6553 7.94012 45.7135 7.94012 46.1212V50.6633V50.6633Z" fill="#A4A4A4"/>
<path d="M18.7272 45.0723H18.3191C17.7944 45.4799 17.6195 45.5964 17.0366 45.5964V45.8875H17.1532C17.4446 45.8875 17.5029 46.004 17.5029 46.1205C17.5029 46.2369 17.4446 46.3534 17.3863 46.5281L15.9289 50.3714C15.8123 50.7208 15.754 51.1285 14.9961 51.1285V51.5943H16.8617V51.1285H16.6285C16.5119 51.1285 16.3953 51.1285 16.3953 51.0702V51.012C16.3953 50.9538 16.5119 50.7208 16.5119 50.6626L16.8617 49.6727H19.1353L19.5434 50.8373C19.6017 50.9538 19.6017 51.012 19.6017 51.012V51.0702C19.6017 51.1867 19.5434 51.1867 19.4268 51.1867H19.1353V51.6526H21.5839V51.1867C21.5256 51.1867 21.409 51.1867 21.3507 51.1867C20.9426 51.1285 20.7677 50.4879 20.6511 50.255L18.7272 45.0723ZM17.9693 46.761H18.0859L18.9604 49.0903H17.1532L17.9693 46.761Z" fill="#A4A4A4"/>
<path d="M25.373 45.1895H23.0994V45.6553H23.2743C23.7407 45.6553 23.799 45.7718 23.799 45.8882C23.799 46.0047 23.7407 46.2959 23.7407 46.4706L23.1577 50.4304C23.0994 50.838 23.0411 51.1292 22.5164 51.1292H22.2832V51.5951H24.2654V51.1292H24.0322C23.799 51.1292 23.6824 51.071 23.6824 50.838C23.6824 50.7798 23.6824 50.7798 23.6824 50.6633V50.6051C23.6824 50.5469 23.6824 50.4886 23.6824 50.4304L24.2071 46.7035H24.3237L25.8394 51.4204H26.539L28.1131 46.7035H28.2297L28.8127 50.7798C28.8127 50.838 28.8127 50.9545 28.7544 51.071C28.6961 51.1292 28.5795 51.1292 28.288 51.1292V51.5951H30.9697V51.1292C30.9114 51.1292 30.9114 51.1292 30.8531 51.1292C30.6199 51.1292 30.3867 51.1874 30.2702 50.5469L29.6289 46.0629C29.6289 45.8882 29.5706 45.6553 29.9204 45.6553H30.1536V45.1895H28.1131L26.7139 49.2657H26.5973L25.373 45.1895Z" fill="#A4A4A4"/>
<path d="M34.3504 49.1489H34.8751C37.2654 49.1489 37.8484 48.1589 37.8484 47.2272C37.8484 46.3537 37.1488 45.0726 35.05 45.1891H32.1934V45.6549H32.3683C32.718 45.6549 32.8929 45.7132 32.8929 46.1208V50.6629C32.8929 51.0706 32.718 51.1288 32.3683 51.1288H32.1934V51.5947H35.2249V51.1288H34.9334C34.5836 51.1288 34.4087 51.0706 34.4087 50.6629V49.1489H34.3504ZM34.3504 48.6248V46.2955C34.3504 45.8879 34.467 45.8296 34.9334 45.8296C35.4581 45.8296 36.2743 46.0625 36.2743 47.2272C36.2743 47.926 35.9245 48.683 34.7002 48.683H34.3504V48.6248Z" fill="#A4A4A4"/>
<path d="M39.1895 51.1276V51.5935H42.1044V51.1276H41.9295C41.4048 51.1276 41.4048 50.8947 41.4048 50.6617V46.1778C41.4048 45.9449 41.4048 45.712 41.9295 45.712H42.1044V45.2461H39.1895V45.712H39.3644C39.889 45.712 39.889 45.9449 39.889 46.1778V50.6617C39.889 50.8947 39.889 51.1276 39.3644 51.1276H39.1895Z" fill="#A4A4A4"/>
<path d="M46.767 51.7108C48.6326 51.7108 49.9734 50.4297 49.9734 48.3915C49.9734 46.3534 48.6326 45.0723 46.767 45.0723C45.0763 45.0723 43.5605 46.1787 43.5605 48.3915C43.5605 50.4297 44.9014 51.7108 46.767 51.7108ZM46.767 51.1867C46.184 51.1867 45.1929 50.9538 45.1929 48.4498C45.1929 46.2369 45.9508 45.7128 46.767 45.7128C48.2828 45.7128 48.3411 47.6927 48.3411 48.4498C48.3411 50.8955 47.35 51.1867 46.767 51.1867Z" fill="#A4A4A4"/>
<path d="M51.4316 45.1895V45.6553H51.6065C51.8397 45.6553 52.1312 45.6553 52.1312 46.1212V50.6633C52.1312 51.0127 52.0146 51.1292 51.6065 51.1292H51.4316V51.5951H53.4721V51.1292H53.2972C52.7725 51.1292 52.7725 50.8963 52.7725 50.6633V47.1111H52.8891L56.1539 51.7115H57.0866V46.1212C57.0866 45.8882 57.0866 45.6553 57.6113 45.6553H57.7862V45.1895H55.7458V45.6553H55.9207C56.1539 45.6553 56.4454 45.6553 56.4454 46.1212V49.4404H56.3288L53.3555 45.1895H51.4316V45.1895Z" fill="#A4A4A4"/>
<path d="M63.4417 46.761L63.3251 45.5381C62.8587 45.3052 62.0425 45.0723 61.4595 45.0723C59.8854 45.0723 59.3024 46.004 59.3024 46.8775C59.3024 47.8674 59.9437 48.3333 60.585 48.6827C61.751 49.3815 62.5672 49.6144 62.5672 50.3132C62.5672 50.9538 62.0425 51.1285 61.5761 51.1285C60.9931 51.1285 60.0603 50.7791 59.5356 49.9056H59.2441L59.419 51.2449C60.2935 51.5943 60.9348 51.7108 61.5178 51.7108C62.917 51.7108 63.9664 50.8955 63.9664 49.8474C63.9664 48.9739 63.4417 48.4498 62.1591 47.6927C61.5178 47.3433 60.585 47.0522 60.585 46.3534C60.585 46.0622 60.7599 45.5964 61.3429 45.5964C61.9259 45.5964 62.7421 45.9458 63.0919 46.7028H63.4417V46.761Z" fill="#A4A4A4"/>
<path d="M16.2773 54.623V54.9724H16.4522C16.6854 54.9724 16.8603 55.0307 16.8603 55.3218V58.5829C16.8603 58.9323 16.802 59.0487 16.4522 59.0487H16.3356V59.3981H20.3L20.4749 58.2917H20.2417C19.8336 58.874 19.3089 58.9905 18.9591 58.9905H18.3178C18.0263 58.9905 17.968 58.874 17.968 58.6411V55.3218C17.968 55.0307 18.0846 54.9724 18.3761 54.9724H18.4927V54.623H16.2773V54.623Z" fill="#A4A4A4"/>
<path d="M25.0224 54.623H21.3496V54.9724H21.5245C21.8743 54.9724 21.9326 55.1471 21.9326 55.3218V58.6994C21.9326 58.8741 21.9326 59.0488 21.5245 59.0488H21.3496V59.3981H25.2556L25.4888 58.2335H25.2556C24.8475 58.9323 24.3229 58.9905 23.9731 58.9905H23.3901C23.0986 58.9905 22.982 58.9323 22.982 58.6411V57.0688H23.7399C24.0897 57.0688 24.3229 57.0688 24.3811 57.5347H24.6143V56.1953H24.3811C24.3229 56.7194 24.0314 56.6612 23.5067 56.6612H23.0403V55.4383C23.0403 55.1471 23.1569 55.0889 23.4484 55.0889H23.9731C24.2646 55.0889 24.7892 55.1471 25.0807 55.8459H25.1973L25.0224 54.623Z" fill="#A4A4A4"/>
<path d="M28.9273 54.5059H28.6358C28.2277 54.8553 28.1111 54.9135 27.703 54.9135V55.1464H27.7613C27.9945 55.1464 27.9945 55.2047 27.9945 55.3211C27.9945 55.4376 27.9362 55.4958 27.9362 55.6123L26.8285 58.4657C26.7119 58.7569 26.7119 58.9898 26.1289 59.048V59.3974H27.5281V59.048H27.3532C27.2949 59.048 27.1783 59.048 27.1783 58.9898V58.9316C27.1783 58.8733 27.2366 58.6986 27.2366 58.6986L27.5281 57.9416H29.2187L29.5102 58.8151C29.5685 58.9316 29.5685 58.9316 29.5685 58.9316V58.9898C29.5685 59.048 29.5102 59.048 29.4519 59.048H29.2187V59.3974H31.026V59.048C30.9677 59.048 30.8511 59.048 30.8511 59.048C30.5596 58.9898 30.3847 58.5239 30.3264 58.3492L28.9273 54.5059ZM28.3443 55.787H28.4026L29.0438 57.534H27.703L28.3443 55.787Z" fill="#A4A4A4"/>
<path d="M35.6909 55.962V55.0303C35.1079 54.6809 34.5832 54.5645 34.0002 54.5645C32.4844 54.5645 31.7266 55.9038 31.7266 57.1267C31.7266 58.699 32.7759 59.5725 34.0585 59.5725C34.8164 59.5725 35.7492 59.2813 36.2156 58.8737C35.9241 58.8154 35.8658 58.5243 35.8658 58.3496V57.4761C35.8658 57.1849 35.9824 57.1267 36.2739 57.1267H36.3905V56.7773H34.4083V57.1267H34.5832C34.8747 57.1267 34.9913 57.1849 34.9913 57.4761V58.3496C34.9913 59.0484 34.5249 59.1648 34.1168 59.1648C32.9508 59.1648 32.8925 57.6508 32.8925 57.1849C32.8925 55.4379 33.767 55.0303 34.2917 55.0303C34.7581 55.0303 35.2828 55.3797 35.4577 56.0203H35.6909V55.962Z" fill="#A4A4A4"/>
<path d="M38.0813 58.0006C38.0813 59.3399 39.4805 59.4564 40.2384 59.4564C41.4627 59.4564 41.9874 58.9905 41.9874 57.6512V55.3218C41.9874 55.0307 42.1039 54.9724 42.3954 54.9724H42.512V54.623H41.0546V54.9724C41.4627 54.9724 41.5793 55.0307 41.5793 55.3218V57.6512C41.5793 58.6994 41.2878 59.107 40.355 59.107C39.3056 59.107 39.2473 58.2917 39.2473 57.8841V55.3218C39.2473 55.0307 39.3639 54.9724 39.6554 54.9724H39.772V54.623H37.5566V54.9724H37.6732C37.9064 54.9724 38.0813 55.0307 38.0813 55.3218V58.0006V58.0006Z" fill="#A4A4A4"/>
<path d="M47.292 54.623H43.6191V54.9724H43.794C44.1438 54.9724 44.2021 55.1471 44.2021 55.3218V58.6994C44.2021 58.8741 44.2021 59.0488 43.794 59.0488H43.6191V59.3981H47.5252L47.7584 58.2335H47.5252C47.1171 58.9323 46.5924 58.9905 46.2426 58.9905H45.6596C45.3681 58.9905 45.2515 58.9323 45.2515 58.6411V57.0688H46.0094C46.3592 57.0688 46.5924 57.0688 46.6507 57.5347H46.8839V56.1953H46.6507C46.5924 56.7194 46.3009 56.6612 45.7762 56.6612H45.3098V55.4383C45.3098 55.1471 45.4264 55.0889 45.7179 55.0889H46.1843C46.4758 55.0889 47.0005 55.1471 47.292 55.8459H47.5252L47.292 54.623Z" fill="#A4A4A4"/>
<path d="M48.168 60.8525C48.168 61.4348 48.6927 61.9589 49.2756 61.9589C49.8586 61.9589 50.3833 61.4348 50.3833 60.8525C50.3833 60.212 49.9169 59.7461 49.2756 59.7461C48.6927 59.7461 48.168 60.2702 48.168 60.8525ZM48.3429 60.8525C48.3429 60.3284 48.751 59.9208 49.2756 59.9208C49.8003 59.9208 50.2084 60.3284 50.2084 60.8525C50.2084 61.3766 49.8003 61.7842 49.2756 61.7842C48.751 61.7842 48.3429 61.3766 48.3429 60.8525ZM48.8093 60.2702C48.9259 60.3284 48.9259 60.3284 48.9259 60.5031V61.2601C48.9259 61.3766 48.8676 61.4348 48.8093 61.4348H48.751V61.4931H49.159V61.4348C49.1007 61.4348 49.0425 61.3766 49.0425 61.2601V60.969C49.1008 60.969 49.1007 60.969 49.159 60.969C49.2173 60.969 49.2173 60.969 49.2756 60.969L49.5088 61.3184V61.3766C49.5088 61.4348 49.4505 61.4348 49.4505 61.4348V61.4931H49.8003V61.4348C49.742 61.4348 49.6837 61.4348 49.6254 61.3184L49.3922 60.969C49.5671 60.969 49.6254 60.7943 49.6254 60.6778C49.6254 60.3867 49.3339 60.3284 49.2756 60.3284H48.8093V60.2702ZM49.1008 60.4449C49.1008 60.3867 49.1007 60.3284 49.2173 60.3284H49.3339C49.3922 60.3284 49.6254 60.3284 49.6254 60.6196C49.6254 60.7943 49.5088 60.9107 49.3339 60.9107C49.2756 60.9107 49.2173 60.9107 49.159 60.9107V60.4449H49.1008Z" fill="#A4A4A4"/>
<path d="M20.1836 38.1427C20.1836 38.1427 24.7309 33.8917 31.4353 34.0082C37.3818 34.1247 41.9291 38.1427 41.9291 38.1427" stroke="#A4A4A4" stroke-width="0.9921" stroke-miterlimit="3.8637"/>
<path d="M24.3223 42.9768C24.3223 42.9768 27.1789 40.1233 31.4347 40.2398C35.8071 40.3563 37.9059 42.9768 37.9059 42.9768" stroke="#A4A4A4" stroke-width="0.9921" stroke-miterlimit="3.8637"/>
<path d="M21.4082 39.6563L22.5742 40.9956C22.7491 41.2286 23.3321 41.8691 24.2648 41.1121C25.1976 40.3551 24.6729 39.6563 24.4397 39.4233L23.2738 38.084L22.7491 38.4916L23.7985 39.7727C24.0899 40.1221 24.1482 40.4133 23.8568 40.7045C23.507 40.9956 23.2738 40.8792 22.9823 40.5298L21.9329 39.2486L21.4082 39.6563Z" fill="#A4A4A4"/>
<path d="M27.704 37.4437L27.5291 36.9196L29.0448 36.4538L28.8699 35.9297L26.7129 36.5702L27.5291 39.3072L29.7444 38.6084L29.5695 38.0843L28.0538 38.5502L27.8206 37.9678L29.1614 37.5602L29.0448 37.0361L27.704 37.4437Z" fill="#A4A4A4"/>
<path d="M32.951 37.0936L33.0675 36.4531L34.4084 36.6278L34.4667 36.0454L32.4263 35.8125L32.1348 38.6659L32.7761 38.7241L32.8927 37.676L34.1169 37.7924L34.1752 37.2101L32.951 37.0936Z" fill="#A4A4A4"/>
<path d="M38.3147 37.4434L36.041 39.4815L36.6823 39.8309L37.0904 39.4233L38.0232 39.8891L37.9066 40.4715L38.5479 40.8209L38.956 37.7928L38.3147 37.4434ZM37.4402 39.0739L38.2564 38.3169L38.0815 39.4233L37.4402 39.0739Z" fill="#A4A4A4"/>
</g>
<defs>
<clipPath id="clip0">
<rect width="63.8373" height="61.9597" fill="white" transform="translate(0.128906)"/>
</clipPath>
</defs>
</svg>
