<svg width="103" height="44" viewBox="0 0 103 44" fill="none" xmlns="http://www.w3.org/2000/svg">
<g clip-path="url(#clip0)">
<path d="M9.61005 8.72887C14.4618 6.05959 19.4373 5.70721 24.024 6.95816C24.2184 5.39888 24.3333 4.03341 25.1994 2.15698C24.0505 2.99388 23.3081 3.9365 22.4597 4.9584L22.1769 0.597698L18.5006 4.6765L15.9819 0.580078L14.4353 5.16102L9.9282 1.9896L10.6882 6.39435C9.65424 5.53983 8.50537 4.68531 7.34766 4.2096C8.2314 5.38126 9.09748 6.9934 9.61005 8.72887Z" fill="#A4A4A4" stroke="#A4A4A4" stroke-width="0.5" stroke-linejoin="round"/>
<path d="M28.3806 10.5794C27.0992 9.51341 25.8089 8.58841 22.9721 7.89246C23.2284 8.44746 23.4405 9.16103 23.4405 9.90103C22.707 9.12579 21.8232 8.15674 20.7362 7.59293C17.157 7.12603 13.4807 8.0246 10.5908 9.46936C11.8104 9.61031 12.7737 10.5617 13.1006 11.6101C9.64519 9.21388 7.66559 12.6672 9.66286 16.1205C7.51535 15.0986 7.41814 12.6144 8.07211 10.9758C6.46369 12.2003 3.99804 14.5524 2.46031 17.7415L4.43107 18.0146C2.04495 20.8072 0.851893 24.8331 0.613281 27.1941L3.82129 26.1546C2.80498 29.8193 3.61803 35.5279 4.91713 37.6069C6.92324 36.0388 8.52283 34.0743 10.1843 31.5812C11.2359 34.8936 11.0503 38.3469 10.2285 41.8619C14.9035 44.5048 20.7274 43.43 24.5452 40.5669C24.7043 41.2452 24.8191 41.5624 25.1373 43.0424C29.7681 39.8445 31.3412 35.9331 31.7919 32.145L33.2943 33.8012C35.3092 27.3086 34.1073 22.0317 30.5282 16.931L30.3779 18.1203C29.9626 17.6005 29.2821 16.9662 28.9639 16.5698C28.9109 16.5082 28.9286 16.4729 28.8932 16.4201C29.0611 16.3143 29.3793 16.1734 29.4588 15.9443C29.4235 15.636 29.0611 14.8343 28.796 14.6846C28.1332 14.7463 27.6029 15.3277 27.5941 15.5391C27.2494 15.2132 26.9225 14.852 25.915 14.482C26.3657 14.9401 26.7987 15.636 27.1169 16.2527C27.7797 16.7372 28.8844 17.6622 29.7063 18.5079L29.5472 18.6665C28.6458 17.9617 26.2155 18.0234 24.881 18.6929C24.2359 17.9177 23.4758 17.0543 22.4242 16.1029C22.1679 15.6624 22.1414 14.8872 22.9633 14.2089C22.0618 14.2882 21.6907 14.6758 21.2576 15.037C20.6302 14.5613 19.7995 14.0679 18.465 13.6891C17.4133 13.9005 16.1496 14.5701 15.6635 15.1603C16.8831 15.8122 17.2631 16.006 18.0054 16.0589C19.0925 16.1382 20.0469 15.8915 20.7451 16.332C21.6111 17.0984 23.2284 18.5343 23.4582 19.1862C22.0618 18.3846 19.9585 18.8074 17.6343 18.6841C15.4337 18.4198 14.2142 16.7989 14.1965 15.4863L12.6323 15.2396C13.516 14.0327 14.6295 13.4953 15.4514 13.2134L14.5942 12.4998C15.9728 11.3194 18.1115 10.3767 20.2943 10.1829C21.8056 10.9317 23.0958 11.7422 23.9884 12.4734C24.3861 11.8039 24.448 11.0815 24.501 10.6058C26.2243 11.3986 28.1509 12.7553 29.556 14.1824C28.9904 13.1694 28.5662 11.9801 28.3806 10.5794ZM21.6465 26.6479C20.9837 25.3881 20.3385 23.9522 19.5785 22.7541C21.0455 21.7058 22.433 20.6222 24.8103 20.0143C25.314 20.4284 26.0564 20.9305 27.108 21.3093V23.8112C25.6145 24.8331 24.121 26.4981 21.6465 26.6479ZM26.6308 26.1898L28.4425 26.181C28.7518 26.4717 29.3881 27.4408 29.4323 28.2072C29.2909 29.2819 28.4513 31.2641 26.9755 32.0217C27.0197 31.1055 26.9136 29.9162 26.728 29.2555C25.8885 30.1981 24.5187 30.621 23.8117 30.7795C23.52 30.0043 23.034 29.141 22.5656 28.4362C23.8382 28.1807 25.4378 27.2557 26.6308 26.1898ZM30.1658 20.1112C31.3589 22.6308 31.1026 25.0446 30.263 26.2867C29.8565 25.3529 29.07 24.4279 28.4072 23.8377L28.4337 21.3886C29.1937 20.9922 29.7063 20.5605 30.1658 20.1112Z" fill="#A4A4A4" stroke="#A4A4A4" stroke-width="0.5" stroke-linejoin="round"/>
<path d="M42.7854 17.407V22.1201H40.0723V7.80469H43.731C46.1436 7.83112 46.939 8.12183 47.9818 8.81778C49.0335 9.50492 49.7758 11.0202 49.767 12.4913C49.767 15.7685 47.7344 17.4335 43.9342 17.407H42.7854ZM42.7854 14.8523H44.1552C45.6752 14.8611 46.939 14.2973 46.9478 12.5706C46.9302 11.5135 46.3204 10.5092 44.438 10.4035H42.7854V14.8523Z" fill="#A4A4A4" stroke="#A4A4A4" stroke-width="0.5"/>
<path d="M56.36 15.1514C54.7074 14.6933 53.3465 15.539 53.2316 17.1247V22.1197H50.7129V12.7464H52.9223L53.2139 14.1735C53.8944 12.9226 54.7781 12.438 56.36 12.7464V15.1514Z" fill="#A4A4A4" stroke="#A4A4A4" stroke-width="0.5"/>
<path d="M66.1873 18.2174H59.2146C59.2146 19.2041 60.2662 20.1996 61.6007 20.1907C63.103 20.1379 63.6775 19.5741 64.2077 19.0543L65.7101 20.6224C65.118 21.1862 63.9868 22.2434 61.8216 22.3931C58.5783 22.3579 56.6252 20.226 56.5898 17.5303C56.6694 14.5438 58.8346 12.5177 61.6095 12.4824C63.3858 12.4912 65.1003 13.5572 65.8161 15.231C66.2315 16.1824 66.311 17.3365 66.1873 18.2174ZM59.2146 16.4819H63.7747C63.5714 15.5746 62.723 14.6408 61.4946 14.6672C60.2486 14.676 59.3471 15.5569 59.2146 16.4819Z" fill="#A4A4A4" stroke="#A4A4A4" stroke-width="0.5" stroke-linejoin="round"/>
<path d="M78.6312 22.1113V16.5613C78.5605 15.3368 77.7033 14.8082 77.0317 14.8611C76.1744 14.9228 75.5116 15.5747 75.4586 16.6142V22.1201H72.9841V16.1825C72.8339 15.3104 72.0473 14.8259 71.3845 14.8875C70.6068 14.958 69.9263 15.4073 69.8556 16.2971V22.1201H67.3281V12.7204H69.6082L69.8556 13.9185C70.4919 12.9406 71.1547 12.4737 72.2152 12.4649C73.7088 12.4561 74.3628 13.1961 74.9725 13.989C75.7502 12.8966 76.4396 12.5266 77.9154 12.4649C80.0718 12.5706 81.1853 14.2973 81.1323 16.209V22.1201H78.6312V22.1113Z" fill="#A4A4A4" stroke="#A4A4A4" stroke-width="0.5"/>
<path d="M82.502 12.7461H85.1002V22.1194H82.502V12.7461Z" fill="#A4A4A4" stroke="#A4A4A4" stroke-width="0.5"/>
<path d="M40.0293 23.6777H42.875V35.0684H48.9021V37.6584H40.0293V23.6777Z" fill="#A4A4A4" stroke="#A4A4A4" stroke-width="0.5"/>
<path d="M68.0434 37.659L67.7606 36.4962C66.868 37.5709 65.8163 37.9673 64.5084 37.9145C63.3242 37.8616 62.1223 37.2538 61.2385 36.1438C60.4962 35.2364 60.125 34.1264 60.125 32.8226C60.125 31.5364 60.7348 30.259 61.8041 29.2547C62.6348 28.5236 63.8014 28.1007 64.9326 28.1095C66.0107 28.1183 66.9387 28.4267 67.7429 29.4486L67.9992 28.2417H70.3323V37.6678H68.0434V37.659ZM65.3479 30.4528C63.8986 30.5497 62.9265 31.4307 62.8381 32.9635C62.8381 33.6947 63.0767 34.4171 63.6688 34.9104C64.1991 35.3157 64.8265 35.5271 65.4363 35.4919C66.815 35.395 67.7341 34.329 67.7517 33.0605C67.7782 31.6157 66.8857 30.5409 65.3479 30.4528Z" fill="#A4A4A4" stroke="#A4A4A4" stroke-width="0.5"/>
<path d="M82.7042 28.25H85.3731V32.7957C85.3731 33.4212 85.3112 34.1964 85.7266 34.7338C86.1508 35.2447 86.6899 35.465 87.1582 35.4826C87.9006 35.509 88.3248 35.28 88.6429 35.0245C89.2881 34.5312 89.3588 33.5798 89.3588 32.8574V28.25H91.9747V33.7207C91.9747 34.9276 91.4798 35.9319 90.6049 36.804C89.7565 37.5528 88.5988 37.9757 87.1494 37.914C85.7001 37.8524 84.7898 37.4383 83.9767 36.6807C83.2963 36.0552 82.6953 34.9628 82.6953 33.5005L82.7042 28.25Z" fill="#A4A4A4" stroke="#A4A4A4" stroke-width="0.5"/>
<path d="M83.8438 8.22656C84.2945 8.22656 84.6745 8.38513 84.9838 8.70228C85.302 9.01061 85.4611 9.38942 85.4611 9.8387C85.4611 10.288 85.302 10.6668 84.9838 10.9839C84.6745 11.2923 84.2945 11.4508 83.8438 11.4508C83.3931 11.4508 83.0131 11.2923 82.6949 10.9839C82.3856 10.6668 82.2266 10.2792 82.2266 9.8387C82.2266 9.39823 82.3856 9.01061 82.6949 8.70228C83.0219 8.38513 83.4019 8.22656 83.8438 8.22656Z" fill="#A4A4A4" stroke="#A4A4A4" stroke-width="0.5"/>
<path d="M102.581 15.1514C100.928 14.6933 99.5672 15.539 99.4523 17.1247V22.1197H96.9336V12.7464H99.143L99.4346 14.1735C100.115 12.9226 100.999 12.438 102.581 12.7464V15.1514Z" fill="#A4A4A4" stroke="#A4A4A4" stroke-width="0.5"/>
<path d="M95.7479 18.2174H88.7751C88.7751 19.2041 89.8268 20.1996 91.1612 20.1907C92.6636 20.1379 93.238 19.5741 93.7683 19.0543L95.2706 20.6224C94.6785 21.1862 93.5473 22.2434 91.3822 22.3931C88.1388 22.3579 86.1857 20.226 86.1504 17.5303C86.2299 14.5438 88.3951 12.5177 91.1701 12.4824C92.9464 12.4912 94.6609 13.5572 95.3767 15.231C95.7921 16.1824 95.8716 17.3365 95.7479 18.2174ZM88.7751 16.4819H93.3352C93.132 15.5746 92.2836 14.6408 91.0552 14.6672C89.8091 14.676 88.9077 15.5569 88.7751 16.4819Z" fill="#A4A4A4" stroke="#A4A4A4" stroke-width="0.5" stroke-linejoin="round"/>
<path d="M73.1508 38.6114C74.0876 39.4307 74.8122 39.7391 75.3867 39.836C77.2249 40.1355 79.2045 39.4483 78.7803 36.8231C78.2765 37.3341 77.8081 37.616 77.2956 37.7657C75.0243 38.215 73.4424 37.4045 72.4085 36.136C71.6661 35.2286 71.2949 34.1186 71.2949 32.8148C71.2949 31.5286 71.9047 30.2512 72.974 29.2469C73.8048 28.5157 74.9713 28.0929 76.1025 28.1017C77.1807 28.1105 78.1086 28.4188 78.9128 29.4407L79.1691 28.2338H81.5022V36.9288C81.5994 41.0781 78.5328 42.3643 76.0583 42.3379C74.5294 42.3202 72.9564 41.7036 71.7191 40.6376L73.1508 38.6114ZM76.509 30.4538C75.0597 30.5507 74.0876 31.4317 73.9992 32.9645C73.9992 33.6957 74.2378 34.4181 74.8299 34.9114C75.3602 35.3167 75.9876 35.5281 76.5974 35.4929C77.9761 35.396 78.8952 34.33 78.9128 33.0614C78.9393 31.6167 78.0468 30.5419 76.509 30.4538Z" fill="#A4A4A4" stroke="#A4A4A4" stroke-width="0.5"/>
<path d="M102.545 33.7487H95.572C95.572 34.7353 96.6237 35.7308 97.9581 35.722C99.4605 35.6691 100.035 35.1053 100.565 34.5856L102.068 36.1536C101.475 36.7175 100.344 37.7746 98.1791 37.9244C94.9357 37.8891 92.9826 35.7572 92.9473 33.0615C93.0268 30.0751 95.192 28.0489 97.967 28.0137C99.7433 28.0225 101.458 29.0884 102.174 30.7622C102.58 31.7049 102.669 32.8589 102.545 33.7487ZM95.5632 32.0044H100.123C99.9201 31.097 99.0717 30.1632 97.8432 30.1896C96.606 30.2072 95.7046 31.0794 95.5632 32.0044Z" fill="#A4A4A4" stroke="#A4A4A4" stroke-width="0.5" stroke-linejoin="round"/>
<path d="M59.1092 33.7487H52.1364C52.1364 34.7353 53.1881 35.7308 54.5226 35.722C56.0249 35.6691 56.5994 35.1053 57.1296 34.5856L58.632 36.1536C58.0399 36.7175 56.9087 37.7746 54.7435 37.9244C51.5002 37.8891 49.5471 35.7572 49.5117 33.0615C49.5913 30.0751 51.7564 28.0489 54.5314 28.0137C56.3077 28.0225 58.0222 29.0884 58.738 30.7622C59.1446 31.7049 59.2329 32.8589 59.1092 33.7487ZM52.1276 32.0044H56.6877C56.4845 31.097 55.6361 30.1632 54.4077 30.1896C53.1704 30.2072 52.269 31.0794 52.1276 32.0044Z" fill="#A4A4A4" stroke="#A4A4A4" stroke-width="0.5" stroke-linejoin="round"/>
</g>
<defs>
<clipPath id="clip0">
<rect width="102.08" height="42.8952" fill="white" transform="translate(0.570312 0.53125)"/>
</clipPath>
</defs>
</svg>
