<svg width="48" height="49" viewBox="0 0 48 49" fill="none" xmlns="http://www.w3.org/2000/svg">
<g clip-path="url(#clip0)">
<path d="M38.9121 26.9629V27.1022C38.9121 27.1022 39.0689 27.1022 39.0863 27.1022C39.0863 27.1197 39.0863 27.6248 39.0863 27.6248H39.2431C39.2431 27.6248 39.2431 27.1197 39.2431 27.1022C39.2605 27.1022 39.4173 27.1022 39.4173 27.1022V26.9629H39.365H38.9121Z" fill="#A4A4A4"/>
<path d="M40.0439 26.9629H39.8871C39.8871 26.9629 39.8175 27.3113 39.8 27.4158C39.7652 27.2764 39.7129 26.9629 39.7129 26.9629H39.5039V27.6248H39.6433C39.6433 27.6248 39.6433 27.3635 39.6433 27.2242C39.6781 27.381 39.7304 27.6248 39.7304 27.6248H39.8697C39.8697 27.6248 39.922 27.3635 39.9568 27.2242C39.9568 27.3635 39.9568 27.6248 39.9568 27.6248H40.0962V26.9629H40.0439Z" fill="#A4A4A4"/>
<path fill-rule="evenodd" clip-rule="evenodd" d="M12.4356 29.1559H10.4512V27.8329H12.7664V28.6162H13.7238V28.1985C13.7238 27.2585 13.3756 26.9277 12.366 26.9277H10.7994C9.77232 26.9277 9.45898 27.2411 9.45898 28.2855V28.7555C9.45898 29.7999 9.77232 30.1133 10.7994 30.1133H12.7838V31.5581H10.4686V30.6877H9.45898V31.1229C9.45898 32.1499 9.78972 32.4807 10.8168 32.4807H12.4356C13.4627 32.4807 13.776 32.1673 13.776 31.1229V30.5136C13.776 29.4866 13.4453 29.1559 12.4356 29.1559Z" fill="#A4A4A4"/>
<path fill-rule="evenodd" clip-rule="evenodd" d="M29.4609 26.9102V27.8327H31.2713V32.4805H32.3506V27.8327H34.1609V26.9102H29.4609Z" fill="#A4A4A4"/>
<path fill-rule="evenodd" clip-rule="evenodd" d="M37.5194 29.1559H35.5349V27.8329H37.8501V28.6162H38.7901V28.1985C38.7901 27.2585 38.4419 26.9277 37.4323 26.9277H35.8657C34.8386 26.9277 34.5253 27.2411 34.5253 28.2855V28.7555C34.5253 29.7999 34.8386 30.1133 35.8657 30.1133H37.8501V31.5581H35.3434V30.6877H34.3164V31.1229C34.3164 32.1499 34.6471 32.4807 35.6742 32.4807H37.5019C38.529 32.4807 38.8423 32.1673 38.8423 31.1229V30.5136C38.8597 29.4866 38.5464 29.1559 37.5194 29.1559Z" fill="#A4A4A4"/>
<path fill-rule="evenodd" clip-rule="evenodd" d="M17.4831 26.9102H14.3672V32.4805H15.4464V30.3916H17.4831C18.3361 30.3916 18.719 30.0435 18.719 29.2601V28.059C18.7016 27.2583 18.3361 26.9102 17.4831 26.9102ZM17.6224 28.2679V29.0164C17.6224 29.4342 17.4831 29.4864 17.1175 29.4864H15.429V27.7979H17.135C17.5179 27.7979 17.6224 27.9024 17.6224 28.2679Z" fill="#A4A4A4"/>
<path fill-rule="evenodd" clip-rule="evenodd" d="M22.7583 26.9102H20.5824C19.5553 26.9102 19.2246 27.2409 19.2246 28.2679V31.1053C19.2246 32.1324 19.5553 32.4631 20.5824 32.4631H22.7583C23.7853 32.4631 24.0987 32.1324 24.0987 31.1053V28.2679C24.0813 27.2235 23.7679 26.9102 22.7583 26.9102ZM20.3039 27.8153H23.0194V31.5405H20.3039V27.8153V27.8153Z" fill="#A4A4A4"/>
<path fill-rule="evenodd" clip-rule="evenodd" d="M27.3361 30.3918H27.8757C28.7286 30.3918 29.1116 30.0436 29.1116 29.2603V28.0592C29.1116 27.2759 28.746 26.9277 27.8757 26.9277H24.7598V32.4981H25.839V30.4092H25.9783L28.1716 32.4981H29.7905L27.3361 30.3918ZM27.5275 29.504H25.839V27.7981H27.5275C27.8757 27.7981 28.0149 27.8677 28.0149 28.2507V29.034C28.0149 29.4344 27.8931 29.504 27.5275 29.504Z" fill="#A4A4A4"/>
<path d="M38.825 25.6393H35.4132L33.6202 22.8019H28.2936L30.0865 19.9645H31.8273L29.7906 16.7441L24.1854 25.6393H20.7736H9.44141L13.0273 19.9645H10.3988L12.1918 17.1271H23.1758L21.3828 19.9645H16.4566L14.6462 22.8019H22.5665L29.808 11.3652L38.825 25.6393ZM27.4232 11.4697H15.7603L13.9847 14.3071H25.6302L27.4232 11.4697Z" fill="#A4A4A4"/>
<path d="M24.0807 48.2863C10.9381 48.2863 0.25 37.5982 0.25 24.4557C0.25 11.3131 10.9381 0.625 24.0807 0.625C37.2232 0.625 47.9113 11.3131 47.9113 24.4557C47.9113 37.5982 37.2232 48.2863 24.0807 48.2863ZM24.0807 3.2361C12.3829 3.2361 2.8611 12.7579 2.8611 24.4557C2.8611 36.1534 12.3829 45.6752 24.0807 45.6752C35.7784 45.6752 45.3002 36.1534 45.3002 24.4557C45.3002 12.7579 35.7784 3.2361 24.0807 3.2361Z" fill="#A4A4A4"/>
</g>
<defs>
<clipPath id="clip0">
<rect width="47.6613" height="47.6613" fill="white" transform="translate(0.25 0.625)"/>
</clipPath>
</defs>
</svg>
