<svg width="73" height="49" viewBox="0 0 73 49" fill="none" xmlns="http://www.w3.org/2000/svg">
<g clip-path="url(#clip0)">
<path d="M72.2254 39.3469H70.1683H69.0994C68.9986 38.8233 68.8574 38.4609 68.6355 38.2595C68.2927 37.9172 67.728 37.7561 66.9414 37.7561C66.1549 37.7561 65.6305 37.877 65.328 38.1387C65.1061 38.3401 64.9851 38.6018 64.9851 38.9441C64.9851 39.4274 65.6507 39.7898 66.9414 40.0919C68.4338 40.4141 69.5028 40.696 70.1683 40.9174C70.3498 40.9779 70.491 41.0383 70.5918 41.0987C71.9229 41.7229 72.5683 42.6693 72.5683 43.9378C72.5683 45.4883 71.9229 46.6159 70.6322 47.3408C70.4708 47.4213 70.3095 47.5018 70.1481 47.5824C69.3212 47.9448 68.3532 48.126 67.2641 48.126C65.6305 48.126 64.3196 47.8441 63.3112 47.2602C62.686 46.8978 62.2019 46.4346 61.8994 45.8708C61.5767 45.307 61.4355 44.6627 61.4355 43.9177H64.7229C64.7229 44.4815 64.9246 44.9245 65.328 45.2265C65.7313 45.5487 66.417 45.7098 67.3649 45.7098C68.091 45.7098 68.6355 45.5487 68.9784 45.2466C69.2607 45.005 69.3817 44.7432 69.3817 44.4412C69.3817 43.9378 68.7364 43.5351 67.4456 43.2532C65.5297 42.8505 64.3196 42.5082 63.8154 42.2665C62.5044 41.6625 61.8591 40.696 61.8591 39.3871C61.8591 38.3401 62.2019 37.434 62.8876 36.7091C63.7549 35.7828 65.0456 35.3398 66.7599 35.3398C68.1717 35.3398 69.3011 35.5412 70.1683 35.9439C70.249 35.9842 70.3095 36.0043 70.37 36.0446C70.975 36.3869 71.4389 36.8299 71.7616 37.3736C72.0641 37.9374 72.2254 38.5817 72.2254 39.3469Z" fill="#A4A4A4"/>
<path d="M70.5512 31.7154C70.5512 31.655 70.5311 31.5946 70.5109 31.5543C70.4706 31.4939 70.4302 31.4738 70.3697 31.4536C70.3294 31.4335 70.2689 31.4335 70.168 31.4134H70.047H69.6638V32.0174H70.0672C70.1075 32.0174 70.1479 32.0174 70.168 32.0174C70.3092 31.9973 70.4101 31.9772 70.4504 31.9369C70.5109 31.8765 70.5512 31.7959 70.5512 31.7154ZM70.8134 31.3932C70.8739 31.4738 70.9143 31.5745 70.9143 31.6751C70.9143 31.8161 70.8537 31.957 70.7529 32.0577C70.6521 32.1584 70.5109 32.2389 70.3294 32.2389C70.4101 32.2792 70.4504 32.2993 70.5109 32.3396L70.8134 32.7423L71.0554 33.145H70.6722L70.4907 32.8229C70.3697 32.6215 70.2689 32.4604 70.1882 32.4C70.168 32.3799 70.168 32.3799 70.1479 32.3598L69.8857 32.2792H69.684V33.145H69.3613V31.1113H70.0672C70.1075 31.1113 70.1479 31.1315 70.1882 31.1315C70.3697 31.1315 70.4907 31.1516 70.5714 31.1919C70.6521 31.2321 70.7327 31.2926 70.8134 31.3932Z" fill="#A4A4A4"/>
<path d="M71.7209 32.1383C71.7209 31.8564 71.6604 31.5946 71.5192 31.353C71.378 31.1113 71.1764 30.91 70.9343 30.769C70.6923 30.6482 70.4301 30.5677 70.168 30.5677C70.1478 30.5677 70.1478 30.5677 70.1478 30.5677C69.8856 30.5677 69.6234 30.6482 69.3814 30.769C69.1394 30.91 68.9377 31.1113 68.7965 31.353C68.6554 31.5946 68.5747 31.8564 68.5747 32.1383C68.5747 32.4 68.6554 32.6618 68.7965 32.9236C68.9175 33.1652 69.1192 33.3464 69.3612 33.4874C69.6033 33.6283 69.8654 33.6887 70.1478 33.6887C70.1478 33.6887 70.1478 33.6887 70.168 33.6887C70.4301 33.6887 70.6923 33.6283 70.9545 33.4874C71.1965 33.3464 71.3982 33.145 71.5192 32.9236C71.6604 32.6618 71.7209 32.4 71.7209 32.1383ZM72.0436 32.1383C72.0436 32.4604 71.9629 32.7625 71.8016 33.0645C71.6402 33.3665 71.4184 33.588 71.1159 33.7491C70.8133 33.9303 70.5108 33.9907 70.1881 33.9907C70.168 33.9907 70.168 33.9907 70.168 33.9907C69.8453 33.9907 69.5428 33.9102 69.2402 33.7491C68.9377 33.588 68.7159 33.3665 68.5545 33.0645C68.373 32.7625 68.3125 32.4604 68.3125 32.1383C68.3125 31.7959 68.3932 31.4939 68.5545 31.1919C68.736 30.8898 68.9579 30.6683 69.2604 30.5073C69.5629 30.3462 69.8654 30.2656 70.168 30.2656C70.168 30.2656 70.168 30.2656 70.1881 30.2656C70.5108 30.2656 70.8133 30.3462 71.1159 30.5073C71.4184 30.6683 71.6604 30.8898 71.8217 31.1919C71.9629 31.4738 72.0436 31.7959 72.0436 32.1383Z" fill="#A4A4A4"/>
<path d="M53.6706 16.8947L62.5445 31.634H53.6706H48.3059L39.8353 17.5592L33.4219 6.90735L39.8353 3.04129L43.8689 0.625L53.6706 16.8947Z" fill="#A4A4A4"/>
<path d="M60.1036 41.8836V47.9243H57.159V47.2599C56.1708 47.9042 54.9809 48.2868 53.7103 48.2868C53.6901 48.2868 53.6901 48.2868 53.67 48.2868C50.1607 48.2667 47.2969 45.4074 47.2969 41.8836C47.2969 38.38 50.1607 35.5006 53.67 35.4805C53.6901 35.4805 53.6901 35.4805 53.7103 35.4805C54.9809 35.4805 56.1708 35.863 57.159 36.5074V35.8026H60.1036V41.8836ZM57.159 42.5481V41.2192C56.8363 39.6083 55.4044 38.38 53.7103 38.38C53.6901 38.38 53.6901 38.38 53.67 38.38C51.7338 38.4001 50.1809 39.9707 50.1809 41.8836C50.1809 43.8167 51.754 45.3872 53.67 45.4074C53.6901 45.4074 53.6901 45.4074 53.7103 45.4074C55.4044 45.4074 56.8363 44.159 57.159 42.5481Z" fill="#A4A4A4"/>
<path d="M46.2696 41.8839V47.9246H43.325V47.2601C42.3166 47.9044 41.1469 48.287 39.8763 48.287C39.8562 48.287 39.8561 48.287 39.836 48.287C36.3267 48.2669 33.4629 45.4076 33.4629 41.8839C33.4629 38.3802 36.3267 35.5008 39.836 35.4807C39.8561 35.4807 39.8562 35.4807 39.8763 35.4807C41.1469 35.4807 42.3368 35.8633 43.325 36.5076V31.6348H46.2696V41.8839ZM43.325 42.5483V41.2194C43.0024 39.6085 41.5704 38.3802 39.8763 38.3802C39.8562 38.3802 39.8561 38.3802 39.836 38.3802C37.8999 38.4004 36.3469 39.971 36.3469 41.8839C36.3469 43.8169 37.92 45.3875 39.836 45.4076C39.8561 45.4076 39.8562 45.4076 39.8763 45.4076C41.5704 45.4076 43.0024 44.1592 43.325 42.5483Z" fill="#A4A4A4"/>
<path d="M39.8342 25.8357L43.3031 31.6348H39.8342H29.0847L21.1788 18.5264L20.8359 17.9425L21.1788 17.7412L31.3031 11.6602L39.8342 25.8357Z" fill="#A4A4A4"/>
<path d="M32.2927 35.4805H29.0859V47.9244H32.2927V35.4805Z" fill="#A4A4A4"/>
<path d="M32.2927 31.7148H29.0859V34.5338H32.2927V31.7148Z" fill="#A4A4A4"/>
<path d="M27.614 41.8839V47.9246H24.6694V47.2601C23.661 47.9044 22.4711 48.287 21.2005 48.287C21.1804 48.287 21.1804 48.287 21.1602 48.287C17.651 48.2669 14.7871 45.4076 14.7871 41.8839C14.7871 38.3802 17.651 35.5008 21.1602 35.4807C21.1804 35.4807 21.1804 35.4807 21.2005 35.4807C22.4711 35.4807 23.661 35.8633 24.6694 36.5076V31.6348H27.614V41.8839ZM24.6694 42.5483V41.2194C24.3467 39.6085 22.9148 38.3802 21.2005 38.3802C21.1804 38.3802 21.1804 38.3802 21.1602 38.3802C19.2241 38.4004 17.6711 39.971 17.6711 41.8839C17.6711 43.8169 19.2442 45.3875 21.1602 45.4076C21.1804 45.4076 21.1804 45.4076 21.2005 45.4076C22.935 45.4076 24.3669 44.1592 24.6694 42.5483Z" fill="#A4A4A4"/>
<path d="M21.1797 26.8024L24.0838 31.635H21.1797H9.84523L8.25195 28.9771L18.7192 22.7148L21.1797 26.8024Z" fill="#A4A4A4"/>
<path d="M13.6368 41.8836V47.9243H10.6922V47.2599C9.68384 47.9042 8.49393 48.2868 7.22334 48.2868C7.20317 48.2868 7.20317 48.2868 7.183 48.2868C3.69394 48.2667 0.830078 45.3872 0.830078 41.8836C0.830078 38.38 3.69394 35.5006 7.20317 35.4805C7.22334 35.4805 7.22334 35.4805 7.24351 35.4805C8.51409 35.4805 9.70401 35.863 10.7124 36.5074V35.8026H13.6569V41.8836H13.6368ZM10.6922 42.5481V41.2192C10.3696 39.6083 8.93762 38.38 7.22334 38.38C7.20317 38.38 7.20317 38.38 7.183 38.38C5.26704 38.4001 3.69394 39.9707 3.69394 41.8836C3.69394 43.8167 5.26704 45.3872 7.183 45.4074C7.20317 45.4074 7.20317 45.4074 7.22334 45.4074C8.95779 45.4074 10.3897 44.159 10.6922 42.5481Z" fill="#A4A4A4"/>
</g>
<defs>
<clipPath id="clip0">
<rect width="71.7376" height="47.6613" fill="white" transform="translate(0.830078 0.625)"/>
</clipPath>
</defs>
</svg>
