<svg width="91" height="15" viewBox="0 0 91 15" fill="none" xmlns="http://www.w3.org/2000/svg">
<g clip-path="url(#clip0)">
<path d="M60.1005 14.4475C59.2979 14.1465 58.5955 13.695 57.9935 13.093C57.3915 12.491 56.9902 11.8389 56.639 11.0362C56.338 10.2837 56.1875 9.43082 56.1875 8.52781C56.1875 7.4743 56.3882 6.42079 56.8397 5.36728C57.241 4.36393 57.843 3.41076 58.5955 2.60808C59.348 1.80541 60.251 1.15323 61.3547 0.701727C62.4584 0.250222 63.6122 -0.0507812 64.9166 -0.0507812C65.9199 -0.0507812 66.8229 0.0997204 67.6256 0.450891C68.4283 0.751894 69.1306 1.2034 69.7326 1.80541C70.3346 2.40741 70.736 3.05959 71.0872 3.86226C71.4383 4.66494 71.5387 5.46761 71.5387 6.37062C71.5387 7.42413 71.338 8.47765 70.8865 9.53116C70.4852 10.5345 69.8831 11.4877 69.1306 12.2904C68.3781 13.093 67.4751 13.7452 66.3714 14.1967C65.3179 14.6984 64.1139 14.9492 62.8096 14.9492C61.8062 14.9492 60.9032 14.7987 60.1005 14.4475ZM65.2678 11.5378C65.8698 11.1867 66.4216 10.7853 66.8731 10.2837C67.3246 9.78199 67.6256 9.17999 67.8765 8.52781C68.1273 7.87564 68.2276 7.22347 68.2276 6.62146C68.2276 6.06962 68.1273 5.61811 67.9768 5.16661C67.8263 4.71511 67.5755 4.31377 67.2745 4.01276C66.9735 3.66159 66.5721 3.41076 66.1206 3.26026C65.6691 3.05959 65.1173 3.00942 64.5153 3.00942C63.7627 3.00942 63.0604 3.15992 62.4584 3.51109C61.8564 3.86226 61.3046 4.2636 60.8531 4.76527C60.4015 5.26694 60.1005 5.86895 59.8497 6.52112C59.5989 7.1733 59.4985 7.82547 59.4985 8.42748C59.4985 8.97932 59.5989 9.48099 59.7494 9.88233C59.8999 10.3338 60.1507 10.7352 60.4517 11.0362C60.7527 11.3873 61.1541 11.6382 61.6056 11.7887C62.0571 11.9894 62.6089 12.0395 63.2109 12.0395C63.9132 11.9894 64.6156 11.8389 65.2678 11.5378Z" fill="white"/>
<path d="M76.0029 14.4983C75.2002 14.1973 74.4979 13.7458 73.8959 13.1438C73.2939 12.5418 72.8925 11.8896 72.5414 11.087C72.2403 10.3344 72.0898 9.48161 72.0898 8.5786C72.0898 7.52508 72.2905 6.47157 72.742 5.41806C73.1434 4.41472 73.7454 3.46154 74.4979 2.65886C75.2504 1.85619 76.1534 1.20401 77.2571 0.752508C78.3607 0.301003 79.5146 0 80.8189 0C81.8223 0 82.7253 0.150502 83.528 0.501672C84.3306 0.802676 85.033 1.25418 85.635 1.85619C86.237 2.45819 86.6383 3.11037 86.9895 3.91304C87.2905 4.71572 87.441 5.5184 87.441 6.42141C87.441 7.47492 87.2403 8.52843 86.7888 9.58194C86.3875 10.5853 85.7855 11.5385 85.033 12.3411C84.2805 13.1438 83.3775 13.796 82.2738 14.2475C81.2203 14.7492 80.0163 15 78.7119 15C77.7587 15 76.8557 14.8495 76.0029 14.4983ZM81.1701 11.5385C81.7721 11.1873 82.324 10.786 82.7755 10.2843C83.227 9.78261 83.528 9.1806 83.7788 8.52843C84.0296 7.87625 84.13 7.22408 84.13 6.62207C84.13 6.07023 84.0296 5.61873 83.8791 5.16722C83.7286 4.71572 83.4778 4.31438 83.1768 4.01338C82.8758 3.66221 82.4745 3.41137 82.023 3.26087C81.5714 3.0602 81.0196 3.01003 80.4176 3.01003C79.6651 3.01003 78.9627 3.16054 78.3607 3.51171C77.7587 3.86288 77.2069 4.26421 76.7554 4.76589C76.3039 5.26756 76.0029 5.86957 75.7521 6.52174C75.5012 7.17391 75.4009 7.82609 75.4009 8.42809C75.4009 8.97993 75.5012 9.48161 75.6517 9.88294C75.8022 10.3344 76.0531 10.7358 76.3541 11.0368C76.6551 11.388 77.0564 11.6388 77.5079 11.7893C77.9594 11.99 78.5112 12.0401 79.1133 12.0401C79.8658 12.0401 80.5681 11.8896 81.1701 11.5385Z" fill="white"/>
<path d="M5.46823 6.2207H2.25753L0 14.699H3.16054L4.66555 9.1304H11.5886L12.3411 6.2207H5.46823Z" fill="#FEB800"/>
<path d="M14.097 3.10953L14.8997 0.25H3.86286L3.11035 3.10953H14.097Z" fill="#FEB800"/>
<path d="M18.5115 3.10953L19.264 0.25H16.1035L15.3008 3.10953H18.5115Z" fill="#FEB800"/>
<path d="M22.8266 3.10953H30.452L31.2546 0.25H20.4185L19.666 3.10953H22.8266Z" fill="#FEB800"/>
<path d="M34.8666 3.10953L35.6191 0.25H32.4586L31.7061 3.10953H34.8666Z" fill="#FEB800"/>
<path d="M53.9795 2.10619C53.4276 1.55435 52.6751 1.10284 51.7721 0.751672C50.8691 0.400502 49.7153 0.25 48.3106 0.25H44.0965L43.344 3.10953H46.5547H48.1099C48.9126 3.10953 49.6149 3.20987 50.1668 3.41054C50.7186 3.6112 51.1199 3.86204 51.4711 4.16304C52.0229 4.71488 52.324 5.51756 52.324 6.47074C52.324 7.17308 52.2236 7.82525 51.9728 8.47742C51.7219 9.07943 51.3708 9.63127 50.9193 10.1329C50.3173 10.7349 49.6149 11.1363 48.8122 11.4373C47.9594 11.7383 47.0564 11.8888 46.1032 11.8888H44.2972L45.8022 6.27007H42.5915L40.334 14.7483H45.7019C47.4076 14.7483 48.8624 14.4975 50.1166 14.046C51.3708 13.5945 52.4243 12.9423 53.2771 12.0393C54.0798 11.2366 54.6316 10.3838 55.033 9.4306C55.4343 8.47742 55.635 7.42391 55.635 6.3704C55.5347 4.56438 55.033 3.1597 53.9795 2.10619Z" fill="#FEB800"/>
<path d="M14.4981 6.2207L12.1904 14.699H15.4011L17.6587 6.2207H14.4981Z" fill="#FEB800"/>
<path d="M34.0639 6.2207H30.8532L28.5957 14.699H38.9803L39.7328 11.8394H32.5589L34.0639 6.2207Z" fill="#FEB800"/>
<path d="M21.2714 8.8294H27.9938L28.6961 6.2207H18.8132L16.5557 14.699H27.442L28.2446 11.8896H20.4687L21.2714 8.8294Z" fill="#FEB800"/>
</g>
<defs>
<clipPath id="clip0">
<rect width="90.8027" height="15" fill="white"/>
</clipPath>
</defs>
</svg>
