<svg width="14" height="13" viewBox="0 0 14 13" fill="none" xmlns="http://www.w3.org/2000/svg">
<g clip-path="url(#clip0)">
<path d="M13.7705 1.40964C13.694 1.40964 13.7705 1.25301 13.694 1.33133L13.7705 1.40964C13.694 1.40964 13.694 1.40964 13.6175 1.40964L13.694 1.33133C13.694 1.33133 13.6175 1.1747 13.541 0.939759C13.4645 0.783133 13.388 0.548193 13.235 0.46988C13.1585 0.46988 13.235 0.313253 13.1585 0.391566V0.46988H13.082C13.082 0.548193 13.235 0.46988 13.235 0.626506C13.235 0.626506 13.235 0.704819 13.1585 0.704819C13.235 0.704819 13.1585 0.783132 13.1585 0.783132C13.082 0.783132 13.082 0.861446 13.0055 0.861446V0.939759C13.0055 1.01807 13.0055 0.939759 13.0055 0.939759C13.0055 0.939759 12.929 1.01807 12.8525 1.01807C12.8525 0.939759 12.929 0.939759 12.929 0.861446C13.0055 0.939759 13.0055 0.861446 13.0055 0.783132C13.0055 0.861446 13.0055 0.939759 12.929 1.01807C12.8525 1.01807 12.8525 0.939759 12.8525 0.861446C12.8525 0.939759 12.8525 1.09639 12.776 1.09639C12.776 1.01807 12.6995 1.01807 12.6995 0.861446C12.623 0.861446 12.623 0.939759 12.623 0.939759C12.623 0.939759 12.623 0.861446 12.623 0.939759C12.5464 1.01807 12.6995 1.09639 12.6995 1.1747C12.623 1.1747 12.5464 1.25301 12.5464 1.25301L12.623 1.33133C12.623 1.40964 12.5464 1.33133 12.5464 1.33133C12.5464 1.40964 12.623 1.40964 12.623 1.48795C12.5464 1.40964 12.5464 1.56626 12.4699 1.48795C12.4699 1.56626 12.4699 1.56626 12.3934 1.64458C12.3169 1.64458 12.3169 1.48795 12.3934 1.48795C12.4699 1.40964 12.3934 1.56626 12.4699 1.48795V1.40964C12.3934 1.40964 12.3934 1.48795 12.3169 1.40964C12.3169 1.48795 12.3934 1.40964 12.3934 1.48795H12.3169C12.3169 1.56626 12.3934 1.56626 12.3169 1.64458C12.3169 1.56626 12.2404 1.72289 12.1639 1.64458C12.2404 1.72289 12.0874 1.8012 12.0874 1.87952H12.1639H12.0874C12.2404 1.72289 12.2404 1.64458 12.2404 1.64458C12.2404 1.72289 12.3169 1.72289 12.3169 1.72289C12.3169 1.87952 12.2404 1.72289 12.2404 1.72289V1.8012H12.3169C12.3169 1.87952 12.2404 1.95783 12.1639 2.03614C12.0109 2.11446 12.1639 1.95783 12.0109 2.03614C12.0109 2.11446 12.0109 2.11446 12.0109 2.11446C12.0874 2.11446 12.0109 2.03614 12.0874 2.03614C12.1639 2.03614 12.0109 2.11446 12.0874 2.19277C12.0874 2.19277 12.0109 2.19277 12.0109 2.11446C11.9344 2.19277 11.8579 2.27108 11.7814 2.27108V2.3494C11.6284 2.50602 11.7814 2.19277 11.7049 2.27108C11.6284 2.3494 11.6284 2.3494 11.6284 2.42771V2.3494C11.6284 2.42771 11.6284 2.42771 11.6284 2.50602C11.6284 2.50602 11.5519 2.50602 11.5519 2.58434H11.4754C11.4754 2.58434 11.4754 2.58434 11.4754 2.50602C11.4754 2.50602 11.4754 2.50602 11.4754 2.42771C11.4754 2.42771 11.4754 2.42771 11.3989 2.42771C11.3989 2.27108 11.3224 2.11446 11.2459 2.03614H11.3224C11.3989 1.8012 11.7049 1.72289 11.8579 1.48795C11.7814 1.48795 11.8579 1.40964 11.7814 1.40964C11.9344 1.56626 11.9344 1.56626 11.8579 1.56626C11.8579 1.48795 11.9344 1.48795 11.9344 1.40964C11.9344 1.33133 11.8579 1.48795 11.8579 1.48795C11.9344 1.40964 11.9344 1.40964 11.9344 1.33133C12.0109 1.33133 12.0109 1.33133 12.0874 1.33133C12.2404 1.1747 12.1639 1.09639 12.3169 1.01807C12.2404 1.09639 12.3934 1.01807 12.3169 1.09639C12.2404 1.25301 12.0109 1.48795 12.0874 1.56626C12.1639 1.48795 12.2404 1.33133 12.3169 1.1747C12.3934 1.09639 12.3169 1.1747 12.3169 1.09639C12.3934 0.939759 12.5464 1.01807 12.5464 0.939759L12.4699 1.01807C12.5464 0.939759 12.4699 1.01807 12.3934 0.939759C12.4699 0.783133 12.776 0.548193 12.929 0.313253C12.8525 0.313253 12.8525 0.391566 12.776 0.46988C12.776 0.391566 12.776 0.313253 12.6995 0.313253L12.623 0.391566L12.5464 0.313253L12.623 0.23494C12.623 0.156627 12.776 0.0783133 12.776 0.0783133L12.6995 0.156627C12.623 0.156627 12.6995 0.0783133 12.776 0C12.6995 0 12.623 0.156627 12.4699 0.313253C12.4699 0.313253 12.4699 0.46988 12.5464 0.391566C12.5464 0.391566 12.5464 0.469879 12.4699 0.548193C12.4699 0.548193 12.3169 0.548193 12.3934 0.46988C12.3169 0.548193 12.3934 0.46988 12.3169 0.626506C12.3169 0.626506 12.1639 0.783132 12.0874 0.704819C12.0874 0.783132 12.1639 0.783133 12.0874 0.939759C12.1639 0.939759 12.3169 0.783133 12.2404 0.939759V0.861446C12.2404 0.783132 12.1639 0.861446 12.2404 0.783132C12.2404 0.783132 12.1639 0.939759 12.0874 0.861446C12.1639 0.939759 11.9344 1.09639 12.0109 1.1747C11.9344 1.1747 11.9344 1.1747 11.8579 1.25301C11.8579 1.25301 11.7814 1.25301 11.8579 1.1747C11.9344 1.1747 11.9344 1.09639 12.0109 1.09639C11.9344 1.01807 11.8579 1.25301 11.7049 1.33133C11.6284 1.40964 11.4754 1.48795 11.4754 1.40964L11.1694 1.72289C11.1694 1.72289 11.1694 1.64458 11.2459 1.64458L11.0929 1.8012C11.0164 1.8012 11.0929 1.72289 11.0929 1.64458L10.9399 1.8012V1.72289C10.9399 1.8012 10.7869 1.95783 10.7104 1.95783C10.5574 2.11446 10.6339 2.19277 10.4809 2.3494C10.4809 2.27108 10.5574 2.19277 10.5574 2.11446C10.4809 2.11446 10.4809 2.27108 10.4044 2.27108C10.4044 2.27108 10.4044 2.27108 10.3279 2.27108L10.2514 2.3494C10.2514 2.3494 10.2514 2.3494 10.3279 2.27108C10.3279 2.19277 10.4044 2.19277 10.4044 2.11446L10.3279 2.19277C10.2514 2.19277 10.3279 2.11446 10.3279 2.03614C10.2514 2.03614 10.2514 2.19277 10.1749 2.27108C10.1749 2.27108 10.1749 2.42771 10.2514 2.3494C10.2514 2.3494 10.2514 2.42771 10.2514 2.50602C10.2514 2.50602 10.1749 2.50602 10.1749 2.42771C10.1749 2.50602 10.1749 2.42771 10.0984 2.50602C10.0984 2.50602 9.94536 2.66265 9.94536 2.58434C9.94536 2.66265 10.0219 2.66265 9.94536 2.74096C10.0219 2.74096 10.0984 2.66265 10.0984 2.74096V2.66265C10.1749 2.58434 10.0984 2.74096 10.2514 2.66265L10.1749 2.74096C10.2514 2.81928 10.0984 2.89759 10.1749 2.9759H10.0984C10.0984 2.9759 10.0984 3.05422 10.0984 2.9759C10.0984 2.9759 10.0984 2.9759 10.0219 3.05422C10.0219 3.05422 9.94536 3.05422 9.94536 2.9759L10.0219 2.89759C9.94536 2.81928 9.86885 2.9759 9.79235 3.05422C9.71585 3.05422 9.63935 3.21084 9.63935 3.13253L9.40984 3.36747V3.28916L9.25683 3.44578C9.18033 3.44578 9.25683 3.36747 9.25683 3.36747L9.18033 3.44578C9.18033 3.5241 9.10383 3.60241 9.02732 3.60241C8.95082 3.68072 9.02732 3.83735 8.87432 3.91566C8.79781 3.83735 8.95082 3.83735 8.95082 3.75904C8.87432 3.75904 8.87432 3.91566 8.79781 3.83735C8.72131 3.91566 8.79781 3.99398 8.79781 4.07229C8.79781 4.07229 8.79781 4.07229 8.72131 4.07229C8.72131 4.07229 8.72131 4.07229 8.72131 4.1506C8.56831 4.22892 8.4918 4.38554 8.3388 4.54217L8.4918 4.46386C8.4153 4.54217 8.4153 4.54217 8.4153 4.54217C8.4153 4.54217 8.4153 4.54217 8.3388 4.54217C8.4153 4.54217 8.4153 4.62048 8.3388 4.69879C8.26229 4.69879 8.3388 4.62048 8.4153 4.54217C8.3388 4.62048 8.2623 4.69879 8.2623 4.69879H8.18579C8.10929 4.77711 8.10929 4.85542 8.10929 4.93373C8.10929 4.93373 8.10929 4.93373 8.10929 4.85542L8.03279 4.93373C7.95628 5.01205 8.03279 4.93373 8.03279 4.85542L7.95628 4.93373C7.95628 5.01205 8.03279 4.93373 7.95628 5.01205C7.72678 5.16867 7.65027 5.24699 7.57377 5.40361H7.65027L7.57377 5.48193C7.57377 5.56024 7.49727 5.56024 7.49727 5.63855H7.42076C7.26776 5.63855 7.34426 5.71687 7.34426 5.71687C7.34426 5.71687 7.34426 5.71687 7.26776 5.79518L7.19126 5.87349C7.11475 5.95181 7.03825 6.03012 7.03825 6.10843C7.03825 6.10843 7.03825 6.18675 6.96175 6.18675C6.88525 6.18675 6.88525 6.26506 6.88525 6.26506C6.88525 6.26506 6.80874 6.26506 6.80874 6.34337C6.65574 6.5 6.57924 6.57831 6.50273 6.65663C6.34973 6.81325 6.27322 6.89157 6.19672 7.04819C6.04372 7.20482 5.96721 7.28313 5.89071 7.36144C5.6612 7.59639 5.5847 7.98795 5.35519 8.22289C5.35519 8.22289 5.35519 8.3012 5.27869 8.37952C5.20219 8.3012 5.04918 8.61446 4.97268 8.69277C4.97268 8.8494 4.81967 8.92771 4.74317 8.92771C4.59016 9.00602 4.43716 9.24096 4.36066 9.39759V9.31928C4.28415 9.4759 4.20765 9.4759 4.13115 9.63253C4.13115 9.63253 4.13115 9.55422 4.13115 9.63253C3.97814 9.78916 3.82514 9.94578 3.67213 10.1024C3.67213 10.1024 3.67213 10.1024 3.59563 10.1024V10.1807C3.51913 10.259 3.51913 10.259 3.44262 10.3373C3.44262 10.259 3.36612 10.259 3.44262 10.1807L3.36612 10.1024C3.36612 10.0241 3.21311 9.94578 3.13661 9.86747C3.13661 9.86747 3.13661 9.86747 3.13661 9.78916L3.06011 9.71084H3.13661C3.13661 9.71084 3.13661 9.71084 3.06011 9.71084L2.8306 9.39759C2.8306 9.39759 2.9071 9.39759 2.9071 9.4759L2.7541 9.31928C2.7541 9.24096 2.8306 9.31928 2.9071 9.31928L2.7541 9.16265H2.8306C2.7541 9.16265 2.6776 9.00602 2.6776 8.92771C2.52459 8.77108 2.44809 8.8494 2.29508 8.61446C2.37158 8.61446 2.37158 8.69277 2.44809 8.69277C2.44809 8.61446 2.29508 8.53614 2.29508 8.53614C2.14208 8.45783 2.06557 8.53614 1.98907 8.45783C1.91257 8.37952 1.98907 8.37952 1.98907 8.37952C1.98907 8.37952 1.83607 8.37952 1.83607 8.3012C1.75956 8.3012 1.68306 8.3012 1.75956 8.37952C1.68306 8.3012 1.60656 8.22289 1.60656 8.3012C1.68306 8.3012 1.60656 8.22289 1.60656 8.14458C1.60656 8.06626 1.53005 7.98795 1.45355 7.90964C1.53005 7.90964 1.45355 7.90964 1.53005 7.83133C1.60656 7.83133 1.75956 7.98795 1.91257 8.06627C1.91257 7.98795 1.91257 7.98795 1.83607 7.98795C1.91257 7.90964 1.91257 7.98795 1.98907 7.90964V7.83133C1.98907 7.83133 1.98907 7.83133 1.98907 7.90964C2.06557 7.90964 2.06557 7.98795 2.06557 7.98795H1.98907C1.98907 7.90964 2.06557 7.98795 2.06557 7.98795C2.06557 7.90964 1.98907 7.90964 1.91257 7.83133C1.91257 7.83133 1.75956 7.83133 1.83607 7.90964H1.75956C1.75956 7.90964 1.75956 7.83133 1.83607 7.83133C1.75956 7.83133 1.83607 7.83132 1.75956 7.75301C1.75956 7.75301 1.68306 7.6747 1.75956 7.59639C1.68306 7.59639 1.68306 7.6747 1.60656 7.59639C1.60656 7.6747 1.68306 7.75301 1.53005 7.75301H1.60656C1.60656 7.83132 1.53005 7.75301 1.60656 7.83133C1.60656 7.83133 1.53005 7.83132 1.53005 7.75301C1.60656 7.75301 1.53005 7.6747 1.45355 7.6747V7.59639C1.14754 7.6747 0.765027 7.59639 0.535519 7.90964C0.382514 8.14458 0.306011 8.45783 0.153005 8.69277C0.0765027 8.77108 0 8.8494 0 8.92771C0.153005 9.08434 0.306011 9.16265 0.459016 9.31928C1.07104 9.94578 1.83607 10.6506 2.60109 11.2771C2.60109 11.2771 2.60109 11.2771 2.6776 11.2771C2.8306 11.4337 3.06011 11.5904 3.13661 11.747C3.21311 11.9036 3.21311 12.0602 3.36612 12.1386C3.51913 12.2952 3.67213 12.2169 3.82514 12.3735C3.82514 12.3735 3.82514 12.4518 3.90164 12.4518C3.90164 12.4518 3.90164 12.4518 3.97814 12.4518C4.05464 12.4518 4.13115 12.3735 4.20765 12.2952C4.20765 12.3735 4.20765 12.2952 4.28415 12.3735C4.28415 12.4518 4.13115 12.6084 4.05465 12.6867C4.13115 12.6867 4.13115 12.6867 4.13115 12.6084C4.20765 12.6867 4.13115 12.6867 4.20765 12.7651L4.28415 12.6867L4.36066 12.7651C4.36066 12.7651 4.36066 12.7651 4.28415 12.7651C4.28415 12.8434 4.20765 12.8434 4.20765 12.8434V12.7651C4.28415 12.7651 4.20765 12.8434 4.20765 12.8434C4.28415 12.8434 4.28415 12.7651 4.36066 12.6867C4.36066 12.6867 4.36066 12.5301 4.28415 12.6084V12.5301C4.28415 12.5301 4.36066 12.5301 4.36066 12.6084C4.36066 12.5301 4.36066 12.6084 4.43716 12.5301C4.43716 12.5301 4.51366 12.4518 4.59016 12.5301C4.59016 12.4518 4.51366 12.4518 4.59016 12.3735C4.51366 12.3735 4.43716 12.4518 4.43716 12.2952V12.3735C4.36066 12.3735 4.43716 12.2952 4.36066 12.3735C4.36066 12.3735 4.36066 12.2952 4.43716 12.2952C4.36066 12.2169 4.51366 12.1386 4.43716 12.0602C4.43716 12.0602 4.51366 12.0602 4.51366 11.9819C4.51366 11.9819 4.59016 11.9819 4.59016 12.0602C4.59016 12.0602 4.59016 12.1386 4.51366 12.1386C4.59016 12.2169 4.59016 12.0602 4.66667 12.0602C4.74317 12.0602 4.81967 11.9819 4.81967 12.0602L4.97268 11.9036C4.97268 11.9036 4.97268 11.9036 4.97268 11.9819L5.04918 11.9036C5.12568 11.9036 5.04918 11.9819 5.04918 11.9819L5.12568 11.9036C5.12568 11.9036 5.20219 11.747 5.27869 11.8253C5.35519 11.747 5.27869 11.6687 5.35519 11.5904C5.35519 11.747 5.27869 11.747 5.27869 11.8253L5.35519 11.747C5.43169 11.6687 5.35519 11.5904 5.27869 11.512C5.35519 11.4337 5.35519 11.512 5.35519 11.512C5.35519 11.512 5.35519 11.3554 5.43169 11.4337C5.43169 11.3554 5.43169 11.3554 5.35519 11.3554L5.43169 11.2771C5.5082 11.2771 5.5847 11.1205 5.5847 11.0422L5.6612 11.1205L5.73771 11.0422C5.81421 11.0422 5.73771 11.1205 5.73771 11.1988C5.81421 11.1205 5.89071 11.0422 5.89071 11.0422C5.89071 11.0422 5.89071 11.0422 5.81421 11.0422C5.81421 10.9639 5.89071 10.9639 5.89071 10.9639C5.89071 10.9639 5.89071 10.9639 5.89071 11.0422V10.9639C5.96721 11.0422 5.96721 10.9639 5.96721 11.0422V10.9639C6.04372 10.9639 5.96721 10.9639 5.96721 11.0422L6.12022 10.8855C6.12022 10.8072 6.04372 10.8855 6.12022 10.8072C6.19672 10.8072 6.27322 10.6506 6.34973 10.5723H6.27322C6.34973 10.5723 6.27322 10.494 6.27322 10.4157C6.34973 10.4157 6.34973 10.3373 6.42623 10.259C6.42623 10.3373 6.50273 10.3373 6.57924 10.3373C6.65574 10.259 6.57924 10.1807 6.57924 10.1024C6.65574 10.259 6.65574 10.1024 6.73224 10.1024C6.80874 10.1807 6.88525 10.0241 6.96175 9.94578H6.88525C6.88525 9.94578 6.96175 9.86747 6.96175 9.94578C6.96175 9.94578 6.96175 9.94578 7.03825 9.86747C7.49727 9.16265 8.18579 8.69277 8.64481 8.06627C8.79781 7.98795 8.87432 7.83132 8.95082 7.75301C8.95082 7.75301 8.95082 7.83133 9.02732 7.83133C9.10383 7.75301 9.02732 7.6747 9.10383 7.6747L9.18033 7.59639C9.18033 7.59639 9.18033 7.59639 9.25683 7.59639H9.33333V7.51807L9.40984 7.43976C9.40984 7.43976 9.40984 7.43976 9.48634 7.43976C9.48634 7.43976 9.48634 7.43976 9.48634 7.36144C9.56284 7.28313 9.56284 7.28313 9.56284 7.20482C9.56284 7.20482 9.56284 7.28313 9.63935 7.20482V7.12651C9.63935 7.12651 9.63935 7.12651 9.63935 7.04819C9.71585 6.96988 9.79235 6.89157 9.86885 6.81325C10.3279 6.42169 10.7869 5.87349 11.2459 5.40361C12.1639 4.54217 13.235 3.44578 14 2.50602C14 2.42771 14 1.56626 13.7705 1.40964Z" fill="#FEB800"/>
</g>
<defs>
<clipPath id="clip0">
<rect width="14" height="13" fill="white"/>
</clipPath>
</defs>
</svg>
